<svg width="28" height="28" viewBox="0 0 28 28" fill="none" xmlns="http://www.w3.org/2000/svg">
    <circle cx="14" cy="14" r="12" stroke="#F9AD6D" strokeWidth="2.5" strokeMiterlimit="10" strokeLinejoin="round"/>
    <path d="M12.0318 7.80816L12.0306 7.80847C11.4791 7.9558 11.0657 8.40758 10.9473 8.97382L10.9466 8.97728L10.9466 8.97728C10.9367 9.02821 10.9316 9.1171 10.9276 9.21931C10.9232 9.33061 10.9196 9.4821 10.9166 9.6743C10.9108 10.059 10.9076 10.6121 10.9076 11.3438V13.25H9.38575C8.4475 13.25 7.953 13.2506 7.65842 13.2709C7.50841 13.2812 7.39697 13.2973 7.29826 13.3255C7.19807 13.3541 7.1216 13.3924 7.04706 13.4305L7.04589 13.4311C6.92305 13.4946 6.79796 13.5981 6.69426 13.704C6.59002 13.8104 6.48962 13.9374 6.42614 14.0602L6.42462 14.0632L6.42464 14.0632C6.34114 14.2302 6.29331 14.3634 6.27136 14.6299C6.25106 14.8764 6.25143 15.2524 6.25763 15.9084C6.25763 15.9085 6.25764 15.9085 6.25764 15.9086L6.26701 17.1425L6.26743 17.1988L6.29191 17.2494L6.38254 17.4369L6.384 17.4399L6.38402 17.4399C6.52696 17.7258 6.77556 17.9744 7.06145 18.1174L7.06445 18.1189L7.06446 18.1188L7.25196 18.2095L7.3035 18.2344H7.36075H14.0014H20.642H20.6982L20.749 18.2103L20.9259 18.1265C21.2135 17.9939 21.4774 17.7225 21.6187 17.4399L21.6202 17.4369L21.6202 17.4369L21.7108 17.2494L21.7355 17.1984L21.7357 17.1417L21.7451 14.9076L21.7451 14.9073M12.0318 7.80816L21.3545 12.175C21.5045 12.4719 21.5076 12.525 21.4951 14.9063L21.7451 14.9073M12.0318 7.80816C12.0941 7.79185 12.202 7.78376 12.3084 7.77772C12.4271 7.77098 12.5802 7.76542 12.755 7.76097C13.105 7.75206 13.5484 7.74746 13.9911 7.74727C14.4338 7.74707 14.8777 7.75128 15.2285 7.76009C15.4038 7.76449 15.5574 7.77008 15.6768 7.77696C15.7828 7.78307 15.8907 7.79131 15.9545 7.80794M12.0318 7.80816L15.9545 7.80794M21.7451 14.9073C21.7513 13.7215 21.7539 13.1032 21.7354 12.7461C21.7261 12.5663 21.711 12.4384 21.6839 12.3309C21.6556 12.2189 21.6167 12.1395 21.5776 12.0623L21.5766 12.0602C21.5131 11.9374 21.4127 11.8104 21.3085 11.704C21.2048 11.5981 21.0797 11.4946 20.9569 11.4311L20.9557 11.4305C20.8812 11.3924 20.8047 11.3541 20.7046 11.3255C20.6059 11.2973 20.4946 11.2812 20.3447 11.2709C20.0505 11.2506 19.5568 11.25 18.6201 11.25H17.0951M21.7451 14.9073L17.0951 11.25M17.0951 11.25V10.3438C17.0951 9.97859 17.092 9.67231 17.0861 9.44351C17.0831 9.32927 17.0794 9.23284 17.0749 9.15736C17.0708 9.08799 17.0653 9.01999 17.0553 8.97313M17.0951 11.25L17.0553 8.97313M17.0553 8.97313C16.9331 8.39587 16.5212 7.95431 15.9545 7.80794M17.0553 8.97313L15.9545 7.80794M20.2514 12.7664C20.2242 12.7636 20.1807 12.7605 20.1113 12.758C19.885 12.75 19.4546 12.75 18.592 12.75H17.0951V14.75V16.75H18.6233C19.4122 16.75 19.8542 16.7484 20.1046 16.7415C20.1584 16.74 20.2016 16.7383 20.2363 16.7365C20.2388 16.6899 20.241 16.6286 20.2428 16.5481C20.2498 16.2486 20.2514 15.7169 20.2514 14.7656V12.7664ZM20.3561 16.7247C20.3559 16.7246 20.3536 16.7251 20.3498 16.7262C20.3543 16.7254 20.3563 16.7248 20.3561 16.7247ZM10.9076 16.75V15.75V14.75H9.42638H7.78448L7.7672 14.7648L7.767 14.7646L7.7672 14.7648L7.767 14.765V15.775C7.767 16.2273 7.76937 16.5054 7.7758 16.6749C7.77668 16.6981 7.77762 16.7186 7.7786 16.7369C7.80764 16.7384 7.84294 16.7398 7.88581 16.7411C8.1292 16.7484 8.56999 16.75 9.3795 16.75H10.9076ZM7.66596 16.7269C7.66254 16.7259 7.66056 16.7255 7.66042 16.7256C7.66028 16.7256 7.66199 16.7261 7.66596 16.7269ZM15.5951 9.28481L15.5777 9.2674L15.5603 9.25H14.0014H12.4424L12.425 9.2674L12.4076 9.2848V13.0906V16.75H14.0014H15.5951V13.0906V9.28481Z" fill="#F9AD6D" stroke="#F9AD6D" strokeWidth="0.5"/>
</svg>
