<svg width="270" height="206" viewBox="0 0 270 206" fill="none" xmlns="http://www.w3.org/2000/svg">
    <g filter="url(#filter0_d_137_4226)">
    <path d="M33.8223 23.6133H236.986L215.46 207H55.3726L33.8223 23.6133Z" fill="#FFC02E"/>
    </g>
    <path d="M236.986 23.6131H33.8223L55.3972 0.240234H215.411L236.986 23.6131Z" fill="#FFA73B"/>
    <path d="M117.275 86.3459V116.551H110.284V91.9554H104.243V86.3459H117.275ZM132.475 116.896C130.548 116.896 128.663 116.666 126.822 116.206C124.981 115.717 123.514 115.112 122.421 114.393L124.665 109.561C125.7 110.222 126.952 110.769 128.419 111.2C129.886 111.603 131.324 111.804 132.734 111.804C135.582 111.804 137.006 111.1 137.006 109.69C137.006 109.028 136.617 108.554 135.841 108.266C135.064 107.978 133.87 107.734 132.259 107.532C130.361 107.245 128.793 106.914 127.556 106.54C126.319 106.166 125.24 105.504 124.32 104.555C123.428 103.606 122.982 102.254 122.982 100.499C122.982 99.032 123.399 97.7375 124.233 96.6156C125.096 95.4649 126.333 94.5731 127.944 93.9403C129.584 93.3074 131.511 92.991 133.726 92.991C135.366 92.991 136.991 93.178 138.602 93.5519C140.242 93.8971 141.594 94.3862 142.658 95.019L140.415 99.8086C138.372 98.658 136.143 98.0827 133.726 98.0827C132.288 98.0827 131.209 98.284 130.49 98.6868C129.771 99.0895 129.411 99.6073 129.411 100.24C129.411 100.959 129.8 101.463 130.576 101.75C131.353 102.038 132.59 102.311 134.287 102.57C136.186 102.887 137.739 103.232 138.947 103.606C140.156 103.951 141.206 104.598 142.097 105.548C142.989 106.497 143.435 107.82 143.435 109.517C143.435 110.956 143.004 112.236 142.141 113.358C141.278 114.48 140.012 115.357 138.343 115.99C136.704 116.594 134.748 116.896 132.475 116.896ZM163.28 115.429C162.619 115.918 161.799 116.292 160.821 116.551C159.872 116.781 158.865 116.896 157.8 116.896C155.039 116.896 152.896 116.191 151.371 114.782C149.875 113.372 149.127 111.301 149.127 108.568V99.032H145.546V93.854H149.127V88.2013H155.859V93.854H161.641V99.032H155.859V108.482C155.859 109.46 156.103 110.222 156.592 110.769C157.11 111.287 157.829 111.545 158.75 111.545C159.814 111.545 160.72 111.258 161.468 110.682L163.28 115.429Z" fill="white"/>
    <path opacity="0.7" d="M111.971 142.406C111.316 142.406 110.763 142.389 110.31 142.356C109.873 142.305 109.294 142.23 108.573 142.129L108.548 144.772C108.531 145.225 108.522 145.871 108.522 146.71C108.522 147.147 108.397 147.491 108.145 147.742C107.91 147.977 107.642 148.095 107.339 148.095C106.786 148.095 106.375 148.028 106.106 147.893C105.838 147.742 105.703 147.482 105.703 147.113C105.703 146.626 105.745 145.938 105.829 145.049C106.014 143.136 106.106 141.173 106.106 139.159C106.106 137.28 106.047 135.509 105.93 133.848C105.947 133.613 106.064 133.345 106.282 133.043C106.517 132.741 106.811 132.573 107.163 132.539C107.549 132.539 108.162 132.472 109.001 132.338C109.873 132.204 110.536 132.136 110.989 132.136C112.365 132.136 113.431 132.271 114.186 132.539C114.958 132.808 115.73 133.252 116.502 133.873C117.341 135.182 117.76 136.105 117.76 136.642C117.76 137.766 117.534 138.765 117.081 139.637C116.627 140.51 115.965 141.19 115.092 141.676C114.219 142.163 113.179 142.406 111.971 142.406ZM111.392 134.276C110.855 134.276 110.385 134.31 109.982 134.377C109.596 134.427 109.127 134.519 108.573 134.654C108.64 136.197 108.674 137.322 108.674 138.026C108.674 138.748 108.648 139.352 108.598 139.839C109.32 139.99 109.89 140.09 110.31 140.141C110.729 140.174 111.199 140.191 111.719 140.191C112.961 140.191 113.834 139.872 114.337 139.235C114.857 138.58 115.117 137.825 115.117 136.969C115.117 136.718 115.042 136.407 114.891 136.038C114.74 135.669 114.605 135.425 114.488 135.308C114.035 134.905 113.59 134.637 113.154 134.503C112.734 134.352 112.147 134.276 111.392 134.276ZM122.474 144.193C122.474 144.831 122.567 145.326 122.751 145.678C122.953 146.014 123.204 146.182 123.506 146.182C123.674 146.182 123.834 146.173 123.985 146.157C124.136 146.123 124.287 146.106 124.438 146.106C124.605 146.106 124.748 146.19 124.866 146.358C125 146.526 125.067 146.71 125.067 146.912C125.067 147.314 124.874 147.633 124.488 147.868C124.119 148.086 123.615 148.195 122.978 148.195C122.525 148.195 122.063 148.061 121.593 147.793C121.14 147.507 120.763 147.071 120.461 146.484C120.159 145.88 120.008 145.133 120.008 144.244C120.008 142.331 120.041 140.711 120.108 139.386C120.192 137.808 120.234 135.82 120.234 133.42C120.234 132.665 120.276 132.136 120.36 131.834C120.461 131.6 120.62 131.423 120.838 131.306C121.073 131.172 121.316 131.104 121.568 131.104C121.82 131.104 122.038 131.146 122.223 131.23C122.424 131.314 122.558 131.448 122.625 131.633C122.692 131.834 122.734 132.036 122.751 132.237C122.785 132.422 122.802 132.69 122.802 133.043C122.802 133.731 122.776 134.393 122.726 135.031C122.692 135.803 122.676 136.365 122.676 136.718C122.541 139.671 122.474 142.163 122.474 144.193ZM138.236 146.887C138.236 147.256 138.035 147.566 137.632 147.818C137.246 148.07 136.886 148.195 136.55 148.195C135.912 148.195 135.4 148.12 135.014 147.969C134.645 147.801 134.301 147.499 133.982 147.063C133.546 147.449 132.95 147.742 132.195 147.944C131.44 148.128 130.744 148.221 130.106 148.221C129.066 148.221 128.21 147.944 127.539 147.39C126.868 146.819 126.532 145.989 126.532 144.898C126.532 144.428 126.658 144 126.91 143.614C127.161 143.212 127.505 142.859 127.942 142.557C128.428 142.238 128.982 141.995 129.603 141.827C130.224 141.643 130.87 141.55 131.541 141.55C131.893 141.55 132.313 141.617 132.799 141.752C133.286 141.886 133.664 142.029 133.932 142.18V141.777C133.932 140.871 133.714 140.25 133.278 139.914C132.841 139.562 132.137 139.386 131.163 139.386C130.878 139.386 130.593 139.444 130.308 139.562C130.039 139.679 129.729 139.839 129.376 140.04C128.906 140.292 128.462 140.418 128.042 140.418C127.891 140.418 127.749 140.317 127.614 140.116C127.48 139.897 127.413 139.704 127.413 139.537C127.413 139.05 127.639 138.631 128.093 138.278C128.562 137.926 129.116 137.666 129.754 137.498C130.391 137.313 130.962 137.221 131.465 137.221C131.969 137.221 132.548 137.322 133.202 137.523C133.857 137.708 134.394 137.968 134.813 138.303C135.317 138.74 135.702 139.251 135.971 139.839C136.256 140.409 136.399 141.039 136.399 141.727C136.399 141.945 136.382 142.272 136.349 142.708C136.315 143.178 136.298 143.581 136.298 143.916C136.298 144.067 136.281 144.294 136.248 144.596C136.214 144.965 136.198 145.259 136.198 145.477C136.198 145.678 136.273 145.855 136.424 146.006C136.575 146.14 136.751 146.207 136.953 146.207L137.657 146.182C137.842 146.182 137.985 146.249 138.085 146.383C138.186 146.517 138.236 146.685 138.236 146.887ZM130.131 146.232C130.853 146.232 131.457 146.157 131.944 146.006C132.43 145.855 133.018 145.578 133.706 145.175C133.773 144.89 133.815 144.512 133.831 144.042C132.909 143.606 132.145 143.388 131.541 143.388C130.853 143.388 130.24 143.514 129.703 143.765C129.166 144.017 128.898 144.462 128.898 145.099C128.898 145.418 129.032 145.687 129.301 145.905C129.569 146.123 129.846 146.232 130.131 146.232ZM147.738 140.468C147.486 140.468 147.268 140.409 147.083 140.292C146.916 140.158 146.739 139.981 146.555 139.763C146.37 139.545 146.169 139.402 145.951 139.335C145.749 139.268 145.514 139.235 145.246 139.235C144.759 139.235 144.281 139.386 143.811 139.688C143.358 139.973 142.981 140.376 142.679 140.896C142.393 141.416 142.251 141.995 142.251 142.633C142.251 143.337 142.385 143.925 142.653 144.395C142.939 144.864 143.383 145.276 143.987 145.628C144.206 145.745 144.457 145.838 144.743 145.905C145.045 145.972 145.305 146.006 145.523 146.006C146.043 146.006 146.714 145.779 147.537 145.326C147.604 145.292 147.729 145.234 147.914 145.15C148.115 145.049 148.266 144.999 148.367 144.999C148.552 144.999 148.761 145.091 148.996 145.276C149.231 145.443 149.349 145.653 149.349 145.905C149.349 146.408 149.131 146.836 148.694 147.189C148.275 147.541 147.746 147.801 147.109 147.969C146.471 148.137 145.842 148.221 145.221 148.221C144.231 148.221 143.308 147.994 142.452 147.541C141.596 147.088 140.917 146.459 140.413 145.653C139.91 144.848 139.658 143.942 139.658 142.935C139.658 141.844 139.901 140.862 140.388 139.99C140.875 139.1 141.529 138.404 142.351 137.901C143.19 137.38 144.097 137.12 145.07 137.12C146.009 137.12 146.874 137.305 147.662 137.674C148.468 138.043 148.871 138.605 148.871 139.36C148.871 140.099 148.493 140.468 147.738 140.468ZM151.113 142.331C151.113 141.307 151.339 140.46 151.792 139.788C152.245 139.1 152.875 138.454 153.68 137.85C153.915 137.682 154.309 137.54 154.863 137.422C155.417 137.288 155.904 137.221 156.323 137.221C156.826 137.221 157.355 137.33 157.909 137.548C158.479 137.75 158.941 137.984 159.293 138.253C159.914 138.706 160.342 139.235 160.577 139.839C160.812 140.426 160.929 141.131 160.929 141.953C160.929 142.305 160.728 142.649 160.325 142.985C159.939 143.304 159.52 143.463 159.067 143.463L158.11 143.438C157.624 143.438 156.927 143.455 156.021 143.488L155.492 143.514C155.123 143.547 154.846 143.564 154.662 143.564C154.393 143.564 154.024 143.53 153.554 143.463C153.621 144.252 153.915 144.873 154.435 145.326C154.955 145.762 155.518 145.98 156.122 145.98C157.179 145.98 157.917 145.771 158.337 145.351C158.689 145.099 158.924 144.94 159.042 144.873C159.159 144.806 159.344 144.772 159.595 144.772C159.864 144.772 160.099 144.898 160.3 145.15C160.501 145.401 160.602 145.653 160.602 145.905C160.602 146.19 160.426 146.484 160.074 146.786C159.738 147.071 159.276 147.373 158.689 147.692C158.37 147.826 157.934 147.944 157.38 148.044C156.826 148.145 156.365 148.195 155.996 148.195C155.409 148.195 154.754 148.028 154.033 147.692C153.311 147.34 152.774 146.954 152.422 146.534C152.069 146.115 151.759 145.519 151.49 144.747C151.239 143.975 151.113 143.17 151.113 142.331ZM156.122 141.651C157.313 141.651 158.186 141.609 158.739 141.525C158.706 141.039 158.555 140.644 158.286 140.342C158.018 140.023 157.649 139.755 157.179 139.537C157.028 139.47 156.894 139.419 156.776 139.386C156.659 139.352 156.524 139.335 156.373 139.335C155.602 139.335 154.947 139.545 154.41 139.965C153.89 140.384 153.579 140.921 153.479 141.576C154.318 141.626 155.199 141.651 156.122 141.651Z" fill="white"/>
    <defs>
    <filter id="filter0_d_137_4226" x="0.983738" y="5.14161" width="268.841" height="249.064" filterUnits="userSpaceOnUse" colorInterpolationFilters="sRGB">
    <feFlood floodOpacity="0" result="BackgroundImageFix"/>
    <feColorMatrix in="SourceAlpha" type="matrix" values="0 0 0 0 0 0 0 0 0 0 0 0 0 0 0 0 0 0 127 0" result="hardAlpha"/>
    <feOffset dy="14.3669"/>
    <feGaussianBlur stdDeviation="16.4193"/>
    <feComposite in2="hardAlpha" operator="out"/>
    <feColorMatrix type="matrix" values="0 0 0 0 0 0 0 0 0 0 0 0 0 0 0 0 0 0 0.25 0"/>
    <feBlend mode="normal" in2="BackgroundImageFix" result="effect1_dropShadow_137_4226"/>
    <feBlend mode="normal" in="SourceGraphic" in2="effect1_dropShadow_137_4226" result="shape"/>
    </filter>
    </defs>
</svg>
