<svg width="151" height="114" viewBox="0 0 151 114" fill="none" xmlns="http://www.w3.org/2000/svg">
    <g filter="url(#filter0_d_137_9000)">
    <path d="M19 13H132L120.027 115H30.9863L19 13Z" fill="#FFC02E"/>
    </g>
    <path d="M132 13H19L31 0H120L132 13Z" fill="#FFA73B"/>
    <path d="M65.416 48.2V65H61.528V51.32H58.168V48.2H65.416ZM73.8704 65.192C72.7984 65.192 71.7504 65.064 70.7264 64.808C69.7024 64.536 68.8864 64.2 68.2784 63.8L69.5264 61.112C70.1024 61.48 70.7984 61.784 71.6144 62.024C72.4304 62.248 73.2304 62.36 74.0144 62.36C75.5984 62.36 76.3904 61.968 76.3904 61.184C76.3904 60.816 76.1744 60.552 75.7424 60.392C75.3104 60.232 74.6464 60.096 73.7504 59.984C72.6944 59.824 71.8224 59.64 71.1344 59.432C70.4464 59.224 69.8464 58.856 69.3344 58.328C68.8384 57.8 68.5904 57.048 68.5904 56.072C68.5904 55.256 68.8224 54.536 69.2864 53.912C69.7664 53.272 70.4544 52.776 71.3504 52.424C72.2624 52.072 73.3344 51.896 74.5664 51.896C75.4784 51.896 76.3824 52 77.2784 52.208C78.1904 52.4 78.9424 52.672 79.5344 53.024L78.2864 55.688C77.1504 55.048 75.9104 54.728 74.5664 54.728C73.7664 54.728 73.1664 54.84 72.7664 55.064C72.3664 55.288 72.1664 55.576 72.1664 55.928C72.1664 56.328 72.3824 56.608 72.8144 56.768C73.2464 56.928 73.9344 57.08 74.8784 57.224C75.9344 57.4 76.7984 57.592 77.4704 57.8C78.1424 57.992 78.7264 58.352 79.2224 58.88C79.7184 59.408 79.9664 60.144 79.9664 61.088C79.9664 61.888 79.7264 62.6 79.2464 63.224C78.7664 63.848 78.0624 64.336 77.1344 64.688C76.2224 65.024 75.1344 65.192 73.8704 65.192ZM91.0044 64.376C90.6364 64.648 90.1804 64.856 89.6364 65C89.1084 65.128 88.5484 65.192 87.9564 65.192C86.4204 65.192 85.2284 64.8 84.3804 64.016C83.5484 63.232 83.1324 62.08 83.1324 60.56V55.256H81.1404V52.376H83.1324V49.232H86.8764V52.376H90.0924V55.256H86.8764V60.512C86.8764 61.056 87.0124 61.48 87.2844 61.784C87.5724 62.072 87.9724 62.216 88.4844 62.216C89.0764 62.216 89.5804 62.056 89.9964 61.736L91.0044 64.376Z" fill="white"/>
    <path opacity="0.7" d="M62.466 78.836C62.102 78.836 61.794 78.8267 61.542 78.808C61.2993 78.78 60.9773 78.738 60.576 78.682L60.562 80.152C60.5527 80.404 60.548 80.7633 60.548 81.23C60.548 81.4727 60.478 81.664 60.338 81.804C60.2073 81.9347 60.058 82 59.89 82C59.582 82 59.3533 81.9627 59.204 81.888C59.0547 81.804 58.98 81.6593 58.98 81.454C58.98 81.1833 59.0033 80.8007 59.05 80.306C59.1527 79.242 59.204 78.15 59.204 77.03C59.204 75.9847 59.1713 75 59.106 74.076C59.1153 73.9453 59.1807 73.796 59.302 73.628C59.4327 73.46 59.596 73.3667 59.792 73.348C60.0067 73.348 60.3473 73.3107 60.814 73.236C61.2993 73.1613 61.668 73.124 61.92 73.124C62.6853 73.124 63.278 73.1987 63.698 73.348C64.1273 73.4973 64.5567 73.7447 64.986 74.09C65.4527 74.818 65.686 75.3313 65.686 75.63C65.686 76.2553 65.56 76.8107 65.308 77.296C65.056 77.7813 64.6873 78.1593 64.202 78.43C63.7167 78.7007 63.138 78.836 62.466 78.836ZM62.144 74.314C61.8453 74.314 61.584 74.3327 61.36 74.37C61.1453 74.398 60.884 74.4493 60.576 74.524C60.6133 75.3827 60.632 76.008 60.632 76.4C60.632 76.8013 60.618 77.1373 60.59 77.408C60.9913 77.492 61.3087 77.548 61.542 77.576C61.7753 77.5947 62.0367 77.604 62.326 77.604C63.0167 77.604 63.502 77.4267 63.782 77.072C64.0713 76.708 64.216 76.288 64.216 75.812C64.216 75.672 64.174 75.4993 64.09 75.294C64.006 75.0887 63.9313 74.9533 63.866 74.888C63.614 74.664 63.3667 74.5147 63.124 74.44C62.8907 74.356 62.564 74.314 62.144 74.314ZM68.308 79.83C68.308 80.1847 68.3594 80.46 68.462 80.656C68.574 80.8427 68.714 80.936 68.882 80.936C68.9754 80.936 69.064 80.9313 69.148 80.922C69.232 80.9033 69.316 80.894 69.4 80.894C69.4934 80.894 69.5727 80.9407 69.638 81.034C69.7127 81.1273 69.75 81.23 69.75 81.342C69.75 81.566 69.6427 81.7433 69.428 81.874C69.2227 81.9953 68.9427 82.056 68.588 82.056C68.336 82.056 68.0794 81.9813 67.818 81.832C67.566 81.6733 67.356 81.4307 67.188 81.104C67.02 80.768 66.936 80.3527 66.936 79.858C66.936 78.794 66.9547 77.8933 66.992 77.156C67.0387 76.2787 67.062 75.1727 67.062 73.838C67.062 73.418 67.0854 73.124 67.132 72.956C67.188 72.8253 67.2767 72.7273 67.398 72.662C67.5287 72.5873 67.664 72.55 67.804 72.55C67.944 72.55 68.0654 72.5733 68.168 72.62C68.28 72.6667 68.3547 72.7413 68.392 72.844C68.4294 72.956 68.4527 73.068 68.462 73.18C68.4807 73.2827 68.49 73.432 68.49 73.628C68.49 74.0107 68.476 74.3793 68.448 74.734C68.4294 75.1633 68.42 75.476 68.42 75.672C68.3454 77.3147 68.308 78.7007 68.308 79.83ZM77.0749 81.328C77.0749 81.5333 76.9629 81.706 76.7389 81.846C76.5242 81.986 76.3236 82.056 76.1369 82.056C75.7822 82.056 75.4976 82.014 75.2829 81.93C75.0776 81.8367 74.8862 81.6687 74.7089 81.426C74.4662 81.6407 74.1349 81.804 73.7149 81.916C73.2949 82.0187 72.9076 82.07 72.5529 82.07C71.9742 82.07 71.4982 81.916 71.1249 81.608C70.7516 81.2907 70.5649 80.8287 70.5649 80.222C70.5649 79.9607 70.6349 79.7227 70.7749 79.508C70.9149 79.284 71.1062 79.088 71.3489 78.92C71.6196 78.7427 71.9276 78.6073 72.2729 78.514C72.6182 78.4113 72.9776 78.36 73.3509 78.36C73.5469 78.36 73.7802 78.3973 74.0509 78.472C74.3216 78.5467 74.5316 78.626 74.6809 78.71V78.486C74.6809 77.982 74.5596 77.6367 74.3169 77.45C74.0742 77.254 73.6822 77.156 73.1409 77.156C72.9822 77.156 72.8236 77.1887 72.6649 77.254C72.5156 77.3193 72.3429 77.408 72.1469 77.52C71.8856 77.66 71.6382 77.73 71.4049 77.73C71.3209 77.73 71.2416 77.674 71.1669 77.562C71.0922 77.4407 71.0549 77.3333 71.0549 77.24C71.0549 76.9693 71.1809 76.736 71.4329 76.54C71.6942 76.344 72.0022 76.1993 72.3569 76.106C72.7116 76.0033 73.0289 75.952 73.3089 75.952C73.5889 75.952 73.9109 76.008 74.2749 76.12C74.6389 76.2227 74.9376 76.3673 75.1709 76.554C75.4509 76.7967 75.6656 77.0813 75.8149 77.408C75.9736 77.7253 76.0529 78.0753 76.0529 78.458C76.0529 78.5793 76.0436 78.7613 76.0249 79.004C76.0062 79.2653 75.9969 79.4893 75.9969 79.676C75.9969 79.76 75.9876 79.886 75.9689 80.054C75.9502 80.2593 75.9409 80.4227 75.9409 80.544C75.9409 80.656 75.9829 80.754 76.0669 80.838C76.1509 80.9127 76.2489 80.95 76.3609 80.95L76.7529 80.936C76.8556 80.936 76.9349 80.9733 76.9909 81.048C77.0469 81.1227 77.0749 81.216 77.0749 81.328ZM72.5669 80.964C72.9682 80.964 73.3042 80.922 73.5749 80.838C73.8456 80.754 74.1722 80.6 74.5549 80.376C74.5922 80.2173 74.6156 80.0073 74.6249 79.746C74.1116 79.5033 73.6869 79.382 73.3509 79.382C72.9682 79.382 72.6276 79.452 72.3289 79.592C72.0302 79.732 71.8809 79.9793 71.8809 80.334C71.8809 80.5113 71.9556 80.6607 72.1049 80.782C72.2542 80.9033 72.4082 80.964 72.5669 80.964ZM82.3597 77.758C82.2197 77.758 82.0983 77.7253 81.9957 77.66C81.9023 77.5853 81.8043 77.4873 81.7017 77.366C81.599 77.2447 81.487 77.1653 81.3657 77.128C81.2537 77.0907 81.123 77.072 80.9737 77.072C80.703 77.072 80.437 77.156 80.1757 77.324C79.9237 77.4827 79.7137 77.7067 79.5457 77.996C79.387 78.2853 79.3077 78.6073 79.3077 78.962C79.3077 79.354 79.3823 79.6807 79.5317 79.942C79.6903 80.2033 79.9377 80.432 80.2737 80.628C80.395 80.6933 80.535 80.7447 80.6937 80.782C80.8617 80.8193 81.0063 80.838 81.1277 80.838C81.417 80.838 81.7903 80.712 82.2477 80.46C82.285 80.4413 82.355 80.4087 82.4577 80.362C82.5697 80.306 82.6537 80.278 82.7097 80.278C82.8123 80.278 82.929 80.3293 83.0597 80.432C83.1903 80.5253 83.2557 80.642 83.2557 80.782C83.2557 81.062 83.1343 81.3 82.8917 81.496C82.6583 81.692 82.3643 81.8367 82.0097 81.93C81.655 82.0233 81.305 82.07 80.9597 82.07C80.409 82.07 79.8957 81.944 79.4197 81.692C78.9437 81.44 78.5657 81.09 78.2857 80.642C78.0057 80.194 77.8657 79.69 77.8657 79.13C77.8657 78.5233 78.001 77.9773 78.2717 77.492C78.5423 76.9973 78.9063 76.61 79.3637 76.33C79.8303 76.0407 80.3343 75.896 80.8757 75.896C81.3983 75.896 81.879 75.9987 82.3177 76.204C82.7657 76.4093 82.9897 76.722 82.9897 77.142C82.9897 77.5527 82.7797 77.758 82.3597 77.758ZM84.2368 78.794C84.2368 78.2247 84.3628 77.7533 84.6148 77.38C84.8668 76.9973 85.2168 76.638 85.6648 76.302C85.7954 76.2087 86.0148 76.1293 86.3228 76.064C86.6308 75.9893 86.9014 75.952 87.1348 75.952C87.4148 75.952 87.7088 76.0127 88.0168 76.134C88.3341 76.246 88.5908 76.3767 88.7868 76.526C89.1321 76.778 89.3701 77.072 89.5008 77.408C89.6314 77.7347 89.6968 78.1267 89.6968 78.584C89.6968 78.78 89.5848 78.9713 89.3608 79.158C89.1461 79.3353 88.9128 79.424 88.6608 79.424L88.1288 79.41C87.8581 79.41 87.4708 79.4193 86.9668 79.438L86.6728 79.452C86.4674 79.4707 86.3134 79.48 86.2108 79.48C86.0614 79.48 85.8561 79.4613 85.5948 79.424C85.6321 79.8627 85.7954 80.208 86.0848 80.46C86.3741 80.7027 86.6868 80.824 87.0228 80.824C87.6108 80.824 88.0214 80.7073 88.2548 80.474C88.4508 80.334 88.5814 80.2453 88.6468 80.208C88.7121 80.1707 88.8148 80.152 88.9548 80.152C89.1041 80.152 89.2348 80.222 89.3468 80.362C89.4588 80.502 89.5148 80.642 89.5148 80.782C89.5148 80.9407 89.4168 81.104 89.2208 81.272C89.0341 81.4307 88.7774 81.5987 88.4508 81.776C88.2734 81.8507 88.0308 81.916 87.7228 81.972C87.4148 82.028 87.1581 82.056 86.9528 82.056C86.6261 82.056 86.2621 81.9627 85.8608 81.776C85.4594 81.58 85.1608 81.3653 84.9648 81.132C84.7688 80.8987 84.5961 80.5673 84.4468 80.138C84.3068 79.7087 84.2368 79.2607 84.2368 78.794ZM87.0228 78.416C87.6854 78.416 88.1708 78.3927 88.4788 78.346C88.4601 78.0753 88.3761 77.856 88.2268 77.688C88.0774 77.5107 87.8721 77.3613 87.6108 77.24C87.5268 77.2027 87.4521 77.1747 87.3868 77.156C87.3214 77.1373 87.2468 77.128 87.1628 77.128C86.7334 77.128 86.3694 77.2447 86.0708 77.478C85.7814 77.7113 85.6088 78.01 85.5528 78.374C86.0194 78.402 86.5094 78.416 87.0228 78.416Z" fill="white"/>
    <defs>
    <filter id="filter0_d_137_9000" x="0.735159" y="2.72603" width="149.53" height="138.53" filterUnits="userSpaceOnUse" colorInterpolationFilters="sRGB">
    <feFlood floodOpacity="0" result="BackgroundImageFix"/>
    <feColorMatrix in="SourceAlpha" type="matrix" values="0 0 0 0 0 0 0 0 0 0 0 0 0 0 0 0 0 0 127 0" result="hardAlpha"/>
    <feOffset dy="7.99087"/>
    <feGaussianBlur stdDeviation="9.13242"/>
    <feComposite in2="hardAlpha" operator="out"/>
    <feColorMatrix type="matrix" values="0 0 0 0 0 0 0 0 0 0 0 0 0 0 0 0 0 0 0.25 0"/>
    <feBlend mode="normal" in2="BackgroundImageFix" result="effect1_dropShadow_137_9000"/>
    <feBlend mode="normal" in="SourceGraphic" in2="effect1_dropShadow_137_9000" result="shape"/>
    </filter>
    </defs>
</svg>
