<svg width="700" height="200" viewBox="0 0 700 200" fill="none" xmlns="http://www.w3.org/2000/svg">
<g clip-path="url(#clip0_1412_25540)">
<rect width="700" height="200" fill="#7B7FDA"/>
<g opacity="0.5">
<path d="M274.923 51.8851L265.956 63.326C262.586 67.6251 256.887 68.8721 253.228 66.1111C250.255 63.8674 249.546 59.6714 251.192 55.8715C251.572 54.9991 252.079 54.1371 252.711 53.3315L261.679 41.8906L274.923 51.8851Z" stroke="#7174CD" strokeWidth="2.26639" strokeMiterlimit="10" strokeLinejoin="round"/>
<path d="M264.108 52.1552L263.213 55.4463L265.28 57.633L262.033 58.272L260.291 61.3165L259.174 58.4295L256.034 58.1153L258.596 55.6863L258.394 52.4535L261.085 53.8457L264.108 52.1552Z" fill="#7174CD"/>
<path d="M250.44 54.8699C248.75 51.6023 250.042 46.1634 253.69 40.7705L258.406 44.3489" stroke="#7174CD" strokeWidth="2.26639" strokeMiterlimit="10" strokeLinejoin="round"/>
<path d="M265.149 65.9329C268.784 66.7057 273.78 64.0784 278.128 59.2163L273.412 55.638" stroke="#7174CD" strokeWidth="2.26639" strokeMiterlimit="10" strokeLinejoin="round"/>
<path d="M250.887 69.6169L253.901 65.6187" stroke="#7174CD" strokeWidth="2.26639" strokeMiterlimit="10" strokeLinejoin="round"/>
<path d="M256.214 73.1979L246.065 65.5991L242.117 70.5974L252.266 78.1961L256.214 73.1979Z" stroke="#7174CD" strokeWidth="2.26639" strokeMiterlimit="10" strokeLinejoin="round"/>
</g>
<g opacity="0.6" clipPath="url(#clip1_1412_25540)">
<path d="M487.028 157.984C491.536 162.733 499.041 162.929 503.791 158.421C508.541 153.913 508.737 146.408 504.228 141.658C499.72 136.908 492.215 136.712 487.465 141.221C482.716 145.729 482.52 153.234 487.028 157.984Z" stroke="#7174CD" strokeWidth="2.25259"/>
<path d="M510.569 139.725L506.487 135.425" stroke="#7174CD" strokeWidth="2.25259" strokeLinecap="round" strokeLinejoin="round"/>
<path d="M508.528 137.577L504.228 141.658" stroke="#7174CD" strokeWidth="2.25259" strokeLinecap="round" strokeLinejoin="round"/>
<path d="M507.69 149.612L510.833 149.694" stroke="#7174CD" strokeWidth="2.25259" strokeLinecap="round" strokeLinejoin="round"/>
<path d="M495.628 149.82L498.853 146.759" stroke="#7174CD" strokeWidth="2.25259" strokeLinecap="round" strokeLinejoin="round"/>
<path d="M495.628 149.821L492.567 146.596" stroke="#7174CD" strokeWidth="2.25259" strokeLinecap="round" strokeLinejoin="round"/>
</g>
<path d="M227.697 217.723C235.114 220.481 241.594 211.552 241.554 207.211C241.553 200.677 231.66 196.325 225.692 199.897C219.555 203.542 221.625 215.469 227.697 217.723Z" fill="#7578D5"/>
<path d="M180.96 167.769C184.8 160.975 179.963 153.74 175.748 152.495C166.675 149.91 160.224 160.379 162.899 166.82C165.605 173.435 177.8 173.361 180.96 167.769Z" fill="#7578D5"/>
<path d="M222.601 144.604C221.841 150.774 230.743 154.887 234.199 154.561C239.408 154.087 244.396 143.374 241.051 138.912C237.645 134.371 223.805 134.806 222.601 144.604Z" fill="#7578D5"/>
<path d="M157.499 143.199C168.333 143.945 180.961 133.341 187.008 137.268C196.23 143.282 193.037 184.078 202.312 190.015C211.974 196.186 244.256 175.584 253.312 182.699C260.365 188.241 254.215 213.732 260.832 219.794C264.902 223.536 269.45 223.73 273.095 219.586C282.258 209.204 276.733 173.009 265.622 164.675C254.959 156.657 219.823 177.56 212.358 171.88C205.4 166.601 214.191 128.118 202.501 120.004C191.365 112.282 153.264 120.114 148.434 132.779C146.414 138.146 149.824 142.68 157.499 143.199Z" fill="#7578D5"/>
<path fillRule="evenodd" clipRule="evenodd" d="M540.886 51.581C525.44 89.58 489.055 76.1909 480.135 71.04C468.525 64.3373 452.771 37.8538 469.008 20.6824C485.245 3.51089 506.716 9.86418 511.42 25.9604C516.125 42.0566 503.279 50.7734 495.519 51.4316C487.755 52.079 485.705 44.3059 495.353 39.5405C505 34.7752 502.34 24.2447 493.444 19.8831C484.549 15.5215 472.039 25.8327 472.701 39.6555C473.362 53.4784 487.167 69.872 508.58 66.8398C529.993 63.8076 535.137 42.0335 529.997 24.6401C524.857 7.24672 510.489 4.25364 501.372 1.57574C492.255 -1.10217 481.288 2.99043 479.258 -1.86989C477.228 -6.73022 480.96 -7.16655 489.464 -9.41706C518.876 -17.2114 556.338 13.5666 540.886 51.581Z" fill="#7578D5"/>
<g opacity="0.6">
<path d="M233.362 0.970819L230.917 2.18555L231.86 3.78518L234.306 2.57045L235.249 4.17009L233.415 5.08113L234.358 6.68077L236.192 5.76972L237.136 7.36936L234.69 8.58409L235.634 10.1837L238.079 8.96899C238.404 8.80791 238.615 8.48489 238.668 8.071C238.72 7.65711 238.609 7.18624 238.359 6.762L235.528 1.96309C235.278 1.53884 234.909 1.19596 234.503 1.00987C234.097 0.823784 233.686 0.809736 233.362 0.970819Z" fill="#7174CD"/>
<path d="M202.606 25.5667L198.938 27.3888L197.051 24.1895C196.801 23.7653 196.69 23.2944 196.742 22.8805C196.794 22.4666 197.006 22.1436 197.33 21.9825L198.553 21.3752L197.61 19.7755L195.164 20.9903L194.221 19.3906L196.666 18.1759C196.991 18.0148 197.401 18.0289 197.807 18.2149C198.214 18.401 198.582 18.7439 198.833 19.1682L199.776 20.7678C200.026 21.1921 200.137 21.6629 200.085 22.0768C200.033 22.4907 199.821 22.8137 199.497 22.9748L198.274 23.5822L199.217 25.1818L201.663 23.9671L202.606 25.5667Z" fill="#7174CD"/>
<path d="M217.556 9.95725L213.782 3.55871L212.559 4.16607L213.031 4.96589L211.808 5.57326L212.752 7.17289L213.974 6.56553L216.333 10.5646L215.11 11.172L216.054 12.7716L219.722 10.9495L218.779 9.34989L217.556 9.95725Z" fill="#7174CD"/>
<rect width="18.6854" height="34.7722" transform="matrix(0.802929 -0.394862 0.443535 0.745333 199.958 -0.270996)" stroke="#7174CD" strokeWidth="2.99034" strokeLinejoin="round"/>
<rect width="19.2726" height="24.5027" transform="matrix(-0.806756 0.392121 0.44817 0.745026 201.445 9.18359)" stroke="#7174CD" strokeWidth="2.99034" strokeLinejoin="round"/>
<rect width="19.5908" height="20.341" transform="matrix(-0.807845 0.391338 0.449579 0.74493 239.197 -6.52588)" stroke="#7174CD" strokeWidth="2.99034" strokeLinejoin="round"/>
</g>
</g>
<defs>
<clipPath id="clip0_1412_25540">
<rect width="700" height="200" fill="white"/>
</clipPath>
<clipPath id="clip1_1412_25540">
<rect width="35.5719" height="35.5719" fill="white" transform="translate(498.434 122.635) rotate(46.4942)"/>
</clipPath>
</defs>
</svg>
