<svg width="1920" height="339" viewBox="0 0 1920 339" fill="none" xmlns="http://www.w3.org/2000/svg">
<g clip-path="url(#clip0_1412_25483)">
<rect width="1920" height="339" fill="white"/>
<path d="M1920 0H0V339H1920V0Z" fill="#7B7FDA"/>
<path d="M307.906 351.607C317.629 355.67 326.819 343.964 327.032 338.12C327.431 329.328 314.504 323.002 306.326 327.525C297.917 332.137 299.946 348.285 307.906 351.607Z" fill="#7578D5"/>
<path d="M242.775 283.165C248.315 274.208 242.306 264.245 236.758 262.37C224.812 258.462 215.563 272.237 218.736 281.029C221.94 290.056 238.216 290.536 242.775 283.165Z" fill="#7578D5"/>
<path d="M301.718 250.477C300.323 258.73 311.968 264.679 316.607 264.405C323.597 264.016 330.92 249.862 326.723 243.708C322.45 237.445 303.927 237.371 301.718 250.477Z" fill="#7578D5"/>
<path d="M214.566 247.672C229.136 249.184 246.821 235.683 254.74 241.197C266.814 249.638 260.014 303.749 272.165 312.091C284.823 320.761 329.635 294.904 341.418 304.801C350.595 312.511 340.74 346.123 349.297 354.502C354.559 359.675 360.683 360.151 365.855 354.814C378.851 341.442 373.607 293.034 359.127 281.416C345.23 270.241 296.551 296.362 286.826 288.45C277.761 281.094 291.972 230.327 276.696 218.975C262.144 208.17 210.263 216.763 202.972 233.377C199.919 240.42 204.242 246.615 214.566 247.672Z" fill="#7578D5"/>
<path fillRule="evenodd" clipRule="evenodd" d="M1680.77 94.036C1648.09 174.437 1571.1 146.108 1552.23 135.209C1527.66 121.027 1494.33 64.9911 1528.68 28.6584C1563.04 -7.67428 1608.47 5.7685 1618.42 39.826C1628.38 73.8836 1601.2 92.3273 1584.78 93.7199C1568.35 95.0899 1564.01 78.6429 1584.42 68.56C1604.84 58.4771 1599.21 36.1958 1580.39 26.9673C1561.57 17.7387 1535.1 39.5559 1536.5 68.8033C1537.89 98.0507 1567.1 132.738 1612.41 126.322C1657.72 119.906 1668.6 73.8348 1657.73 37.0325C1646.85 0.23027 1616.45 -6.10271 1597.16 -11.7688C1577.87 -17.435 1554.67 -8.7755 1550.37 -19.0594C1546.07 -29.3432 1553.97 -30.2664 1571.96 -35.0282C1634.2 -51.5202 1713.46 13.6023 1680.77 94.036Z" fill="#7578D5"/>
<g opacity="0.6">
<path opacity="0.6" d="M791.059 4.62174L785.348 7.59568L786.835 10.4515L792.546 7.47759L794.033 10.3334L789.75 12.5639L791.237 15.4197L795.52 13.1893L797.007 16.0451L791.296 19.0191L792.783 21.8749L798.494 18.901C799.252 18.5066 799.821 17.8275 800.078 17.0131C800.335 16.1987 800.257 15.3156 799.863 14.5582L795.402 5.99062C795.008 5.2332 794.329 4.66347 793.514 4.40675C792.7 4.15004 791.817 4.22737 791.059 4.62174Z" fill="#7174CD"/>
<path opacity="0.6" d="M731.319 50.2465L722.751 54.7075L719.777 48.9958C719.383 48.2383 719.306 47.3553 719.562 46.5408C719.819 45.7264 720.389 45.0473 721.146 44.6529L724.002 43.166L722.515 40.3101L716.803 43.284L715.316 40.4282L721.028 37.4542C721.786 37.0599 722.669 36.9825 723.483 37.2393C724.297 37.496 724.977 38.0657 725.371 38.8231L726.858 41.679C727.252 42.4364 727.33 43.3195 727.073 44.1339C726.816 44.9483 726.246 45.6274 725.489 46.0218L722.633 47.5088L724.12 50.3646L729.832 47.3907L731.319 50.2465Z" fill="#7174CD"/>
<path opacity="0.6" d="M759.64 20.9834L753.692 9.56006L750.836 11.047L751.58 12.4749L748.724 13.9619L750.211 16.8177L753.067 15.3308L756.784 22.4704L753.928 23.9574L755.415 26.8132L763.983 22.3523L762.496 19.4965L759.64 20.9834Z" fill="#7174CD"/>
<path opacity="0.6" d="M760.536 -12.1557L726.266 5.68799L750.057 51.3816L784.327 33.538L760.536 -12.1557Z" stroke="#7174CD" stroke-width="5.70653" stroke-linejoin="round"/>
<path opacity="0.6" d="M699.437 37.8095L733.707 19.9658L750.064 51.3802L715.793 69.2239L699.437 37.8095Z" stroke="#7174CD" stroke-width="5.70653" stroke-linejoin="round"/>
<path opacity="0.6" d="M770.945 7.83147L805.215 -10.0122L818.598 15.6905L784.327 33.5341L770.945 7.83147Z" stroke="#7174CD" stroke-width="5.70653" stroke-linejoin="round"/>
</g>
<g opacity="0.5">
<path opacity="0.5" d="M516.236 142.998L499.176 165.629C492.766 174.133 480.767 175.902 472.38 169.579C465.564 164.441 463.237 155.55 466.041 147.836C466.689 146.066 467.614 144.336 468.815 142.742L485.875 120.111L516.236 142.998Z" stroke="#7174CD" strokeWidth="4.72489" strokeMiterlimit="10" strokeLinejoin="round"/>
<path opacity="0.5" d="M493.069 141.986L491.799 148.681L496.596 153.518L489.835 154.369L486.719 160.429L483.803 154.279L477.087 153.168L482.055 148.505L481.012 141.771L486.983 145.051L493.069 141.986Z" fill="#7174CD"/>
<path opacity="0.5" d="M466.399 147.17C462.07 139.991 463.835 128.658 470.758 117.776L481.76 126.07" stroke="#7174CD" strokeWidth="4.72489" strokeMiterlimit="10" strokeLinejoin="round"/>
<path opacity="0.5" d="M495.858 169.374C503.952 171.559 514.361 166.742 522.916 157.091L511.914 148.797" stroke="#7174CD" strokeWidth="4.72489" strokeMiterlimit="10" strokeLinejoin="round"/>
<path opacity="0.5" d="M466.127 177.914L472.41 169.579" stroke="#7174CD" strokeWidth="4.72489" strokeMiterlimit="10" strokeLinejoin="round"/>
<path opacity="0.5" d="M477.231 186.285L455.016 169.538L447.843 179.053L470.058 195.8L477.231 186.285Z" stroke="#7174CD" strokeWidth="4.72489" strokeMiterlimit="10" strokeLinejoin="round"/>
</g>
<g opacity="0.6">
<path opacity="0.6" d="M1295.93 216.587C1304.68 225.803 1319.24 226.182 1328.46 217.435C1337.67 208.688 1338.05 194.126 1329.31 184.911C1320.56 175.695 1306 175.315 1296.78 184.062C1287.57 192.809 1287.19 207.371 1295.93 216.587Z" stroke="#7174CD" strokeWidth="4.37063"/>
<path opacity="0.6" d="M1341.61 181.161L1333.69 172.818" stroke="#7174CD" strokeWidth="4.37063" strokeLinecap="round" strokeLinejoin="round"/>
<path opacity="0.6" d="M1337.65 176.992L1329.31 184.911" stroke="#7174CD" strokeWidth="4.37063" strokeLinecap="round" strokeLinejoin="round"/>
<path opacity="0.6" d="M1336.02 200.342L1342.12 200.501" stroke="#7174CD" strokeWidth="4.37063" strokeLinecap="round" strokeLinejoin="round"/>
<path opacity="0.6" d="M1312.62 200.747L1318.88 194.807" stroke="#7174CD" strokeWidth="4.37063" strokeLinecap="round" strokeLinejoin="round"/>
<path opacity="0.6" d="M1312.62 200.749L1306.68 194.491" stroke="#7174CD" strokeWidth="4.37063" strokeLinecap="round" strokeLinejoin="round"/>
</g>
</g>
<defs>
<clipPath id="clip0_1412_25483">
<rect width="1920" height="339" fill="white"/>
</clipPath>
</defs>
</svg>
