<svg width="29" height="29" viewBox="0 0 29 29" fill="none" xmlns="http://www.w3.org/2000/svg">
<mask id="mask0_137_4283" style="mask-type:alpha" maskUnits="userSpaceOnUse" x="0" y="0" width="29" height="29">
<path d="M0 0H29V28.0645H0V0Z" fill="#C4C4C4"/>
</mask>
<g mask="url(#mask0_137_4283)">
<path d="M24.221 24.5407C13.5383 31.6674 2.41257 25.9753 0.28923 16.7944C-1.83411 7.61339 12.0225 -2.9939 20.9424 0.974502C30.1685 5.1082 31.3657 19.7743 24.221 24.5407Z" fill="#045D4D"/>
<mask id="mask1_137_4283" style="mask-type:alpha" maskUnits="userSpaceOnUse" x="0" y="0" width="29" height="28">
<path d="M24.221 24.5407C13.5383 31.6674 2.41257 25.9753 0.28923 16.7944C-1.83411 7.61339 12.0225 -2.9939 20.9424 0.974502C30.1685 5.1082 31.3657 19.7743 24.221 24.5407Z" fill="#045D4D"/>
</mask>
<g mask="url(#mask1_137_4283)">
<path d="M8.03392 36.4253C8.83754 36.4884 18.7853 31.7595 20.5135 30.6075C22.2288 29.4639 17.5378 30.3659 18.249 29.1872C18.7359 28.3797 11.298 24.69 9.05588 26.1743C6.80334 27.6765 6.16711 36.2774 8.03392 36.4253Z" fill="#68BC98"/>
<path d="M0.49199 24.1402C0.782514 23.3948 5.52893 24.6579 7.28876 23.5478C9.03566 22.4461 8.98439 18.1683 10.3617 17.9887C11.3037 17.8694 11.4903 25.1414 9.22346 26.5721C6.93329 28.029 0.0179555 25.3514 0.49199 24.1402Z" fill="#68BC98"/>
<path opacity="0.6" d="M-2.50347 18.5037C-2.21295 17.7583 2.18309 19.8832 3.94293 18.7731C5.68983 17.6714 5.31308 13.691 6.69042 13.5114C7.63243 13.3921 8.14446 20.3667 5.87763 21.7974C3.57799 23.2568 -2.97751 19.7149 -2.50347 18.5037Z" fill="#68BC98"/>
<path opacity="0.3" d="M-3.63615 14.5232C-3.30943 13.949 -0.522181 15.717 1.23765 14.6068C2.98455 13.5051 1.3423 9.4987 2.71618 9.32511C3.65819 9.20581 5.23825 15.5704 2.96795 17.0069C0.67778 18.4638 -4.06686 15.2756 -3.63615 14.5232Z" fill="#68BC98"/>
<path opacity="0.2" d="M-2.9984 7.77067C-3.42105 8.19756 -2.1668 11.5457 -1.06243 12.2381C-0.416014 12.6447 0.174723 12.4127 0.0798356 11.6012C-0.0398528 10.6113 -2.30613 7.07607 -2.9984 7.77067Z" fill="#68BC98"/>
<path d="M26.1527 23.3608C25.8926 22.5194 20.8761 24.5146 19.0236 23.1565C17.1846 21.8088 17.9186 17.4398 16.4073 17.1404C15.3773 16.9364 14.2612 24.5903 16.6505 26.349C19.067 28.1286 26.5782 24.7382 26.1527 23.3608Z" fill="#68BC98"/>
<path opacity="0.4" d="M27.9751 18.8359C27.6623 18.1777 24.0322 20.3546 22.1797 18.9965C20.3407 17.6488 22.8055 13.3826 21.2942 13.0833C20.2642 12.8792 18.097 19.3105 20.4864 21.0692C22.8953 22.8473 28.3855 19.707 27.9751 18.8359Z" fill="#68BC98"/>
<path opacity="0.3" d="M27.8061 12.0127C28.2081 12.5407 26.3268 16.0218 25.0117 16.6222C24.2435 16.9734 23.632 16.6316 23.8599 15.754C24.1348 14.6918 27.1464 11.1495 27.8061 12.0127Z" fill="#68BC98"/>
<path d="M7.43782 12.0638C7.24069 11.8797 2.69712 1.11729 9.73846 1.30976C17.8002 1.52307 13.3319 13.1976 13.3319 13.1976L10.1876 14.3376L7.43782 12.0638Z" fill="#7B7FDA"/>
<path d="M12.5265 12.8521C16.3367 5.75743 11.1239 -0.480696 11.1917 -0.45054C11.3836 -0.367355 21.0751 5.65351 13.2032 14.3309L12.5265 12.8521Z" fill="#9FA3F3"/>
<path d="M11.2285 14.0217C10.9766 14.3927 4.89537 6.59264 9.43961 -0.177563C9.43961 -0.177563 16.1279 6.87507 11.2285 14.0217Z" fill="#9FA3F3"/>
<path d="M9.1298 12.7954C3.71478 6.44489 7.04321 0.41224 6.99323 0.470621C6.86098 0.628042 -0.584461 8.23408 9.47972 14.9453L9.1298 12.7954Z" fill="#9FA3F3"/>
<path d="M5.57681 11.2506C5.67172 11.314 8.08844 17.0419 12.0105 15.451C14.4894 14.4436 15.7483 10.3348 15.7483 10.3348L14.2369 11.583L13.8729 10.0936C13.8729 10.0936 12.6305 11.4 12.286 12.0889C12.1584 11.4639 11.038 10.3793 11.038 10.3793C11.038 10.3793 10.3654 11.3008 10.6604 12.6403C10.3777 12.2998 9.24449 10.8402 9.24449 10.8402L9.40893 13.0591L7.73568 11.4561C7.73568 11.4561 7.77618 12.5374 8.25341 13.5903C7.72986 13.2386 5.57681 11.2506 5.57681 11.2506Z" fill="#2C836B"/>
<path d="M17.5834 11.0604C17.5362 10.9306 17.9618 4.96565 21.1302 6.68672C24.7595 8.65398 20.0097 12.9449 20.0097 12.9449L18.3102 12.7358L17.5834 11.0604Z" fill="#7B7FDA"/>
<path d="M20.2651 12.1791C23.075 9.58382 21.7014 5.97641 21.7272 6.00044C21.8004 6.06748 25.2184 10.2706 20.3398 12.9478L20.2651 12.1791Z" fill="#9FA3F3"/>
<path d="M19.501 12.5025C19.3304 12.6301 17.8089 8.18706 20.898 5.85102C20.898 5.85102 22.8079 10.0525 19.501 12.5025Z" fill="#9FA3F3"/>
<path d="M18.7482 11.6278C17.3019 7.93857 19.7312 5.74489 19.6997 5.76337C19.6159 5.81359 15.0947 8.07673 18.572 12.6472L18.7482 11.6278Z" fill="#9FA3F3"/>
<path d="M12.2143 20.7833C12.2143 20.7833 12.9619 17.0233 15.269 13.9168C20.0844 7.44018 43.1544 19.9797 44.3729 10.3973C45.2912 3.17407 25.5472 9.89108 18.8726 1.14967C16.1462 -2.18603 18.719 -7.64642 22.5915 -11.8092C29.021 -18.7193 44.3064 -17.4135 50.1763 -12.529C56.5688 -7.21265 50.7897 -1.36877 43.6365 -0.558526C27.3008 1.29813 18.5411 -14.2753 21.0137 -23.0781" stroke="#EA7052" stroke-width="5.14516" stroke-miterlimit="10"/>
<path d="M16.4632 16.1053C16.5631 16.326 16.7541 19.1469 16.2538 20.3516C15.5548 22.0439 11.9066 24.4197 11.013 24.1689C10.1802 23.9352 8.58504 19.6335 9.16134 17.9799C9.50007 17.0074 12.0506 14.6128 12.0506 14.6128L16.4632 16.1053Z" fill="#EA7052"/>
<path d="M11.5156 23.0939C11.0069 23.7104 10.8164 24.8556 10.8164 24.8556L11.3139 25.4731" stroke="#EA7052" stroke-width="0.350806" stroke-miterlimit="10" stroke-linecap="round" stroke-linejoin="round"/>
<path d="M9.98494 25.0963L10.8171 24.8519" stroke="#EA7052" stroke-width="0.350806" stroke-miterlimit="10" stroke-linecap="round" stroke-linejoin="round"/>
<path d="M18.7471 13.0301C19.8792 12.6779 19.9257 12.2135 19.8131 11.9837C19.5936 11.5493 18.5188 11.465 17.3866 11.814C16.2543 12.163 15.5031 12.9636 15.8175 13.3763C16.132 13.789 17.6149 13.3822 18.7471 13.0301Z" fill="#F4D85C"/>
<path d="M21.2319 2.18876C20.2127 1.583 19.8362 1.85911 19.7406 2.09643C19.5642 2.55004 20.2203 3.40505 21.2372 4.01299C22.254 4.62092 23.3519 4.64366 23.4486 4.13401C23.5453 3.62437 22.251 2.79452 21.2319 2.18876Z" fill="#F4D85C"/>
<path d="M26.3029 13.3164C27.9448 13.5987 28.4929 13.2268 28.6082 12.9714C28.8212 12.4891 27.7092 11.8668 26.0665 11.5879C24.4238 11.309 22.734 11.6036 22.6492 12.1134C22.5643 12.6231 24.6611 13.034 26.3029 13.3164Z" fill="#F4D85C"/>
<mask id="mask2_137_4283" style="mask-type:alpha" maskUnits="userSpaceOnUse" x="9" y="14" width="8" height="11">
<path d="M16.4632 16.1053C16.5631 16.326 16.7541 19.1469 16.2538 20.3516C15.5548 22.0439 11.9066 24.4197 11.013 24.1689C10.1802 23.9352 8.58504 19.6335 9.16134 17.9799C9.50007 17.0074 12.0506 14.6128 12.0506 14.6128L16.4632 16.1053Z" fill="#EA7052"/>
</mask>
<g mask="url(#mask2_137_4283)">
<path d="M16.4181 22.62C17.1612 21.7455 17.1034 20.6193 16.3084 19.9492C15.5133 19.279 14.3478 19.4607 13.6047 20.3352C12.8616 21.2097 12.9932 22.3065 13.7882 22.9767C14.5833 23.6469 15.674 23.4981 16.4181 22.62Z" fill="#F9AD6D"/>
<path d="M11.3138 19.7188C11.1989 18.5766 10.3509 17.8338 9.31464 17.94C8.27835 18.0462 7.59942 19.0081 7.71433 20.1503C7.82924 21.2925 8.70541 21.9623 9.7417 21.8561C10.778 21.7499 11.4277 20.8646 11.3138 19.7188Z" fill="#F9AD6D"/>
</g>
<path d="M14.4304 21.4845C14.6105 21.269 14.5985 20.9959 14.4014 20.8327C14.2043 20.6695 13.922 20.7136 13.7419 20.929C13.5619 21.1444 13.5912 21.4108 13.7883 21.5741C13.9854 21.7373 14.2514 21.6963 14.4304 21.4845Z" fill="#2F3849"/>
<path d="M10.928 20.2273C10.9557 19.9499 10.7864 19.729 10.5339 19.7082C10.2824 19.6839 10.0722 19.8831 10.0444 20.1605C10.0166 20.4379 10.1945 20.642 10.4506 20.6638C10.7021 20.6881 10.9002 20.5047 10.928 20.2273Z" fill="#2F3849"/>
<path d="M13.0921 14.7893C13.4278 14.2146 13.7138 14.4164 13.2889 15.1465C12.9894 15.66 12.6668 15.518 13.0921 14.7893Z" fill="#F4D85C"/>
<path d="M13.5895 15.8902C13.859 15.4283 14.1733 15.6361 13.8318 16.2216C13.5908 16.6345 13.2471 16.4752 13.5895 15.8902Z" fill="#F4D85C"/>
<path d="M13.7569 17.1976C13.9818 16.8124 14.2451 16.9856 13.9596 17.475C13.7588 17.8195 13.4714 17.6871 13.7569 17.1976Z" fill="#F4D85C"/>
<path d="M15.3023 17.1635C15.5718 16.7017 15.8862 16.9095 15.5446 17.495C15.305 17.9074 14.9607 17.7491 15.3023 17.1635Z" fill="#F4D85C"/>
<path d="M15.0324 15.6432C15.4759 14.9023 15.9651 15.2166 15.4023 16.1585C15.0071 16.82 14.4692 16.5833 15.0324 15.6432Z" fill="#F4D85C"/>
<path d="M13.6196 18.4692C13.8806 17.9198 14.1985 18.0137 13.8111 18.7289C13.6311 19.0612 13.3889 18.9542 13.6196 18.4692Z" fill="#F4D85C"/>
<path d="M12.3842 17.117C12.7092 16.4325 13.1056 16.5488 12.623 17.4408C12.3993 17.8559 12.0972 17.7226 12.3842 17.117Z" fill="#F4D85C"/>
</g>
</g>
</svg>
