<svg width="104" height="89" viewBox="0 0 104 89" fill="none" xmlns="http://www.w3.org/2000/svg">
    <path d="M0 10H104L93.2414 89.6164H0V10Z" fill="#D0D0D0"/>
    <path d="M104 10H3V0H92L104 10Z" fill="#C0C0C0"/>
    <path d="M42.24 46.36V49H31.66V46.9L37.06 41.8C37.6333 41.2533 38.02 40.7867 38.22 40.4C38.42 40 38.52 39.6067 38.52 39.22C38.52 38.66 38.3267 38.2333 37.94 37.94C37.5667 37.6333 37.0133 37.48 36.28 37.48C35.6667 37.48 35.1133 37.6 34.62 37.84C34.1267 38.0667 33.7133 38.4133 33.38 38.88L31.02 37.36C31.5667 36.5467 32.32 35.9133 33.28 35.46C34.24 34.9933 35.34 34.76 36.58 34.76C37.62 34.76 38.5267 34.9333 39.3 35.28C40.0867 35.6133 40.6933 36.0933 41.12 36.72C41.56 37.3333 41.78 38.06 41.78 38.9C41.78 39.66 41.62 40.3733 41.3 41.04C40.98 41.7067 40.36 42.4667 39.44 43.32L36.22 46.36H42.24ZM51.1769 38.08C52.5102 38.08 53.5835 38.48 54.3969 39.28C55.2235 40.08 55.6369 41.2667 55.6369 42.84V49H52.5169V43.32C52.5169 42.4667 52.3302 41.8333 51.9569 41.42C51.5835 40.9933 51.0435 40.78 50.3369 40.78C49.5502 40.78 48.9235 41.0267 48.4569 41.52C47.9902 42 47.7569 42.72 47.7569 43.68V49H44.6369V38.24H47.6169V39.5C48.0302 39.0467 48.5435 38.7 49.1569 38.46C49.7702 38.2067 50.4435 38.08 51.1769 38.08ZM69.9422 34.16V49H66.9622V47.76C66.1889 48.6933 65.0689 49.16 63.6022 49.16C62.5889 49.16 61.6689 48.9333 60.8422 48.48C60.0289 48.0267 59.3889 47.38 58.9222 46.54C58.4555 45.7 58.2222 44.7267 58.2222 43.62C58.2222 42.5133 58.4555 41.54 58.9222 40.7C59.3889 39.86 60.0289 39.2133 60.8422 38.76C61.6689 38.3067 62.5889 38.08 63.6022 38.08C64.9755 38.08 66.0489 38.5133 66.8222 39.38V34.16H69.9422ZM64.1422 46.6C64.9289 46.6 65.5822 46.3333 66.1022 45.8C66.6222 45.2533 66.8822 44.5267 66.8822 43.62C66.8822 42.7133 66.6222 41.9933 66.1022 41.46C65.5822 40.9133 64.9289 40.64 64.1422 40.64C63.3422 40.64 62.6822 40.9133 62.1622 41.46C61.6422 41.9933 61.3822 42.7133 61.3822 43.62C61.3822 44.5267 61.6422 45.2533 62.1622 45.8C62.6822 46.3333 63.3422 46.6 64.1422 46.6Z" fill="white"/>
    <path opacity="0.7" d="M39.466 62.836C39.102 62.836 38.794 62.8267 38.542 62.808C38.2993 62.78 37.9773 62.738 37.576 62.682L37.562 64.152C37.5527 64.404 37.548 64.7633 37.548 65.23C37.548 65.4727 37.478 65.664 37.338 65.804C37.2073 65.9347 37.058 66 36.89 66C36.582 66 36.3533 65.9627 36.204 65.888C36.0547 65.804 35.98 65.6593 35.98 65.454C35.98 65.1833 36.0033 64.8007 36.05 64.306C36.1527 63.242 36.204 62.15 36.204 61.03C36.204 59.9847 36.1713 59 36.106 58.076C36.1153 57.9453 36.1807 57.796 36.302 57.628C36.4327 57.46 36.596 57.3667 36.792 57.348C37.0067 57.348 37.3473 57.3107 37.814 57.236C38.2993 57.1613 38.668 57.124 38.92 57.124C39.6853 57.124 40.278 57.1987 40.698 57.348C41.1273 57.4973 41.5567 57.7447 41.986 58.09C42.4527 58.818 42.686 59.3313 42.686 59.63C42.686 60.2553 42.56 60.8107 42.308 61.296C42.056 61.7813 41.6873 62.1593 41.202 62.43C40.7167 62.7007 40.138 62.836 39.466 62.836ZM39.144 58.314C38.8453 58.314 38.584 58.3327 38.36 58.37C38.1453 58.398 37.884 58.4493 37.576 58.524C37.6133 59.3827 37.632 60.008 37.632 60.4C37.632 60.8013 37.618 61.1373 37.59 61.408C37.9913 61.492 38.3087 61.548 38.542 61.576C38.7753 61.5947 39.0367 61.604 39.326 61.604C40.0167 61.604 40.502 61.4267 40.782 61.072C41.0713 60.708 41.216 60.288 41.216 59.812C41.216 59.672 41.174 59.4993 41.09 59.294C41.006 59.0887 40.9313 58.9533 40.866 58.888C40.614 58.664 40.3667 58.5147 40.124 58.44C39.8907 58.356 39.564 58.314 39.144 58.314ZM45.308 63.83C45.308 64.1847 45.3594 64.46 45.462 64.656C45.574 64.8427 45.714 64.936 45.882 64.936C45.9754 64.936 46.064 64.9313 46.148 64.922C46.232 64.9033 46.316 64.894 46.4 64.894C46.4934 64.894 46.5727 64.9407 46.638 65.034C46.7127 65.1273 46.75 65.23 46.75 65.342C46.75 65.566 46.6427 65.7433 46.428 65.874C46.2227 65.9953 45.9427 66.056 45.588 66.056C45.336 66.056 45.0794 65.9813 44.818 65.832C44.566 65.6733 44.356 65.4307 44.188 65.104C44.02 64.768 43.936 64.3527 43.936 63.858C43.936 62.794 43.9547 61.8933 43.992 61.156C44.0387 60.2787 44.062 59.1727 44.062 57.838C44.062 57.418 44.0854 57.124 44.132 56.956C44.188 56.8253 44.2767 56.7273 44.398 56.662C44.5287 56.5873 44.664 56.55 44.804 56.55C44.944 56.55 45.0654 56.5733 45.168 56.62C45.28 56.6667 45.3547 56.7413 45.392 56.844C45.4294 56.956 45.4527 57.068 45.462 57.18C45.4807 57.2827 45.49 57.432 45.49 57.628C45.49 58.0107 45.476 58.3793 45.448 58.734C45.4294 59.1633 45.42 59.476 45.42 59.672C45.3454 61.3147 45.308 62.7007 45.308 63.83ZM54.0749 65.328C54.0749 65.5333 53.9629 65.706 53.7389 65.846C53.5242 65.986 53.3236 66.056 53.1369 66.056C52.7822 66.056 52.4976 66.014 52.2829 65.93C52.0776 65.8367 51.8862 65.6687 51.7089 65.426C51.4662 65.6407 51.1349 65.804 50.7149 65.916C50.2949 66.0187 49.9076 66.07 49.5529 66.07C48.9742 66.07 48.4982 65.916 48.1249 65.608C47.7516 65.2907 47.5649 64.8287 47.5649 64.222C47.5649 63.9607 47.6349 63.7227 47.7749 63.508C47.9149 63.284 48.1062 63.088 48.3489 62.92C48.6196 62.7427 48.9276 62.6073 49.2729 62.514C49.6182 62.4113 49.9776 62.36 50.3509 62.36C50.5469 62.36 50.7802 62.3973 51.0509 62.472C51.3216 62.5467 51.5316 62.626 51.6809 62.71V62.486C51.6809 61.982 51.5596 61.6367 51.3169 61.45C51.0742 61.254 50.6822 61.156 50.1409 61.156C49.9822 61.156 49.8236 61.1887 49.6649 61.254C49.5156 61.3193 49.3429 61.408 49.1469 61.52C48.8856 61.66 48.6382 61.73 48.4049 61.73C48.3209 61.73 48.2416 61.674 48.1669 61.562C48.0922 61.4407 48.0549 61.3333 48.0549 61.24C48.0549 60.9693 48.1809 60.736 48.4329 60.54C48.6942 60.344 49.0022 60.1993 49.3569 60.106C49.7116 60.0033 50.0289 59.952 50.3089 59.952C50.5889 59.952 50.9109 60.008 51.2749 60.12C51.6389 60.2227 51.9376 60.3673 52.1709 60.554C52.4509 60.7967 52.6656 61.0813 52.8149 61.408C52.9736 61.7253 53.0529 62.0753 53.0529 62.458C53.0529 62.5793 53.0436 62.7613 53.0249 63.004C53.0062 63.2653 52.9969 63.4893 52.9969 63.676C52.9969 63.76 52.9876 63.886 52.9689 64.054C52.9502 64.2593 52.9409 64.4227 52.9409 64.544C52.9409 64.656 52.9829 64.754 53.0669 64.838C53.1509 64.9127 53.2489 64.95 53.3609 64.95L53.7529 64.936C53.8556 64.936 53.9349 64.9733 53.9909 65.048C54.0469 65.1227 54.0749 65.216 54.0749 65.328ZM49.5669 64.964C49.9682 64.964 50.3042 64.922 50.5749 64.838C50.8456 64.754 51.1722 64.6 51.5549 64.376C51.5922 64.2173 51.6156 64.0073 51.6249 63.746C51.1116 63.5033 50.6869 63.382 50.3509 63.382C49.9682 63.382 49.6276 63.452 49.3289 63.592C49.0302 63.732 48.8809 63.9793 48.8809 64.334C48.8809 64.5113 48.9556 64.6607 49.1049 64.782C49.2542 64.9033 49.4082 64.964 49.5669 64.964ZM59.3597 61.758C59.2197 61.758 59.0983 61.7253 58.9957 61.66C58.9023 61.5853 58.8043 61.4873 58.7017 61.366C58.599 61.2447 58.487 61.1653 58.3657 61.128C58.2537 61.0907 58.123 61.072 57.9737 61.072C57.703 61.072 57.437 61.156 57.1757 61.324C56.9237 61.4827 56.7137 61.7067 56.5457 61.996C56.387 62.2853 56.3077 62.6073 56.3077 62.962C56.3077 63.354 56.3823 63.6807 56.5317 63.942C56.6903 64.2033 56.9377 64.432 57.2737 64.628C57.395 64.6933 57.535 64.7447 57.6937 64.782C57.8617 64.8193 58.0063 64.838 58.1277 64.838C58.417 64.838 58.7903 64.712 59.2477 64.46C59.285 64.4413 59.355 64.4087 59.4577 64.362C59.5697 64.306 59.6537 64.278 59.7097 64.278C59.8123 64.278 59.929 64.3293 60.0597 64.432C60.1903 64.5253 60.2557 64.642 60.2557 64.782C60.2557 65.062 60.1343 65.3 59.8917 65.496C59.6583 65.692 59.3643 65.8367 59.0097 65.93C58.655 66.0233 58.305 66.07 57.9597 66.07C57.409 66.07 56.8957 65.944 56.4197 65.692C55.9437 65.44 55.5657 65.09 55.2857 64.642C55.0057 64.194 54.8657 63.69 54.8657 63.13C54.8657 62.5233 55.001 61.9773 55.2717 61.492C55.5423 60.9973 55.9063 60.61 56.3637 60.33C56.8303 60.0407 57.3343 59.896 57.8757 59.896C58.3983 59.896 58.879 59.9987 59.3177 60.204C59.7657 60.4093 59.9897 60.722 59.9897 61.142C59.9897 61.5527 59.7797 61.758 59.3597 61.758ZM61.2368 62.794C61.2368 62.2247 61.3628 61.7533 61.6148 61.38C61.8668 60.9973 62.2168 60.638 62.6648 60.302C62.7954 60.2087 63.0148 60.1293 63.3228 60.064C63.6308 59.9893 63.9014 59.952 64.1348 59.952C64.4148 59.952 64.7088 60.0127 65.0168 60.134C65.3341 60.246 65.5908 60.3767 65.7868 60.526C66.1321 60.778 66.3701 61.072 66.5008 61.408C66.6314 61.7347 66.6968 62.1267 66.6968 62.584C66.6968 62.78 66.5848 62.9713 66.3608 63.158C66.1461 63.3353 65.9128 63.424 65.6608 63.424L65.1288 63.41C64.8581 63.41 64.4708 63.4193 63.9668 63.438L63.6728 63.452C63.4674 63.4707 63.3134 63.48 63.2108 63.48C63.0614 63.48 62.8561 63.4613 62.5948 63.424C62.6321 63.8627 62.7954 64.208 63.0848 64.46C63.3741 64.7027 63.6868 64.824 64.0228 64.824C64.6108 64.824 65.0214 64.7073 65.2548 64.474C65.4508 64.334 65.5814 64.2453 65.6468 64.208C65.7121 64.1707 65.8148 64.152 65.9548 64.152C66.1041 64.152 66.2348 64.222 66.3468 64.362C66.4588 64.502 66.5148 64.642 66.5148 64.782C66.5148 64.9407 66.4168 65.104 66.2208 65.272C66.0341 65.4307 65.7774 65.5987 65.4508 65.776C65.2734 65.8507 65.0308 65.916 64.7228 65.972C64.4148 66.028 64.1581 66.056 63.9528 66.056C63.6261 66.056 63.2621 65.9627 62.8608 65.776C62.4594 65.58 62.1608 65.3653 61.9648 65.132C61.7688 64.8987 61.5961 64.5673 61.4468 64.138C61.3068 63.7087 61.2368 63.2607 61.2368 62.794ZM64.0228 62.416C64.6854 62.416 65.1708 62.3927 65.4788 62.346C65.4601 62.0753 65.3761 61.856 65.2268 61.688C65.0774 61.5107 64.8721 61.3613 64.6108 61.24C64.5268 61.2027 64.4521 61.1747 64.3868 61.156C64.3214 61.1373 64.2468 61.128 64.1628 61.128C63.7334 61.128 63.3694 61.2447 63.0708 61.478C62.7814 61.7113 62.6088 62.01 62.5528 62.374C63.0194 62.402 63.5094 62.416 64.0228 62.416Z" fill="white"/>
</svg>
