<svg width="187" height="161" viewBox="0 0 187 161" fill="none" xmlns="http://www.w3.org/2000/svg">
    <path d="M0.0175781 18.168H187L167.657 161.311H0.0175781V18.168Z" fill="#D0D0D0"/>
    <path d="M187.001 18.1676H5.41211V0.188477H165.426L187.001 18.1676Z" fill="#C0C0C0"/>
    <path d="M75.9605 83.1773V87.9238H56.9386V84.1482L66.6473 74.9789C67.6781 73.996 68.3733 73.157 68.7329 72.4618C69.0924 71.7426 69.2722 71.0355 69.2722 70.3403C69.2722 69.3334 68.9246 68.5663 68.2294 68.0389C67.5582 67.4876 66.5634 67.2119 65.2449 67.2119C64.1422 67.2119 63.1474 67.4277 62.2604 67.8592C61.3734 68.2667 60.6303 68.89 60.031 69.729L55.7879 66.9962C56.7708 65.5339 58.1252 64.3952 59.8512 63.5801C61.5772 62.7411 63.5549 62.3216 65.7843 62.3216C67.6541 62.3216 69.2842 62.6332 70.6746 63.2565C72.089 63.8558 73.1797 64.7188 73.9468 65.8455C74.7379 66.9482 75.1334 68.2547 75.1334 69.7649C75.1334 71.1314 74.8458 72.4139 74.2704 73.6125C73.6951 74.8111 72.5804 76.1775 70.9263 77.7117L65.137 83.1773H75.9605ZM92.0281 68.2907C94.4254 68.2907 96.3551 69.0098 97.8174 70.4481C99.3037 71.8865 100.047 74.02 100.047 76.8487V87.9238H94.4373V77.7117C94.4373 76.1775 94.1017 75.0388 93.4305 74.2957C92.7593 73.5286 91.7884 73.145 90.5179 73.145C89.1035 73.145 87.9769 73.5885 87.1378 74.4755C86.2988 75.3385 85.8793 76.633 85.8793 78.359V87.9238H80.2698V68.5783H85.6276V70.8437C86.3707 70.0286 87.2937 69.4054 88.3964 68.9739C89.4991 68.5184 90.7097 68.2907 92.0281 68.2907ZM125.766 61.2429V87.9238H120.409V85.6944C119.018 87.3725 117.005 88.2115 114.368 88.2115C112.546 88.2115 110.892 87.804 109.406 86.9889C107.943 86.1739 106.793 85.0112 105.954 83.501C105.114 81.9907 104.695 80.2408 104.695 78.2511C104.695 76.2614 105.114 74.5114 105.954 73.0012C106.793 71.4909 107.943 70.3283 109.406 69.5132C110.892 68.6982 112.546 68.2907 114.368 68.2907C116.837 68.2907 118.767 69.0698 120.157 70.6279V61.2429H125.766ZM115.339 83.6088C116.753 83.6088 117.928 83.1294 118.863 82.1705C119.797 81.1877 120.265 79.8812 120.265 78.2511C120.265 76.621 119.797 75.3265 118.863 74.3676C117.928 73.3847 116.753 72.8933 115.339 72.8933C113.9 72.8933 112.714 73.3847 111.779 74.3676C110.844 75.3265 110.376 76.621 110.376 78.2511C110.376 79.8812 110.844 81.1877 111.779 82.1705C112.714 83.1294 113.9 83.6088 115.339 83.6088Z" fill="white"/>
    <path opacity="0.7" d="M70.9728 113.587C70.3184 113.587 69.7646 113.57 69.3116 113.536C68.8753 113.486 68.2963 113.411 67.5748 113.31L67.5496 115.953C67.5328 116.406 67.5244 117.052 67.5244 117.891C67.5244 118.327 67.3986 118.671 67.1469 118.923C66.9119 119.158 66.6435 119.275 66.3414 119.275C65.7877 119.275 65.3765 119.208 65.108 119.074C64.8396 118.923 64.7053 118.663 64.7053 118.294C64.7053 117.807 64.7473 117.119 64.8312 116.23C65.0157 114.317 65.108 112.353 65.108 110.34C65.108 108.46 65.0493 106.69 64.9318 105.029C64.9486 104.794 65.0661 104.525 65.2842 104.223C65.5192 103.921 65.8128 103.753 66.1652 103.72C66.5512 103.72 67.1637 103.653 68.0027 103.519C68.8753 103.384 69.5381 103.317 69.9912 103.317C71.3672 103.317 72.4327 103.451 73.1878 103.72C73.9597 103.988 74.7317 104.433 75.5036 105.054C76.3426 106.363 76.7621 107.286 76.7621 107.823C76.7621 108.947 76.5356 109.945 76.0825 110.818C75.6294 111.691 74.9666 112.37 74.094 112.857C73.2214 113.343 72.181 113.587 70.9728 113.587ZM70.3939 105.457C69.8569 105.457 69.3871 105.49 68.9843 105.557C68.5984 105.608 68.1285 105.7 67.5748 105.834C67.6419 107.378 67.6755 108.502 67.6755 109.207C67.6755 109.929 67.6503 110.533 67.5999 111.019C68.3215 111.17 68.892 111.271 69.3116 111.321C69.7311 111.355 70.2009 111.372 70.7211 111.372C71.9629 111.372 72.8355 111.053 73.3389 110.415C73.8591 109.761 74.1192 109.006 74.1192 108.15C74.1192 107.898 74.0437 107.588 73.8926 107.219C73.7416 106.849 73.6074 106.606 73.4899 106.489C73.0368 106.086 72.5921 105.817 72.1558 105.683C71.7363 105.532 71.149 105.457 70.3939 105.457ZM81.4763 115.374C81.4763 116.012 81.5686 116.507 81.7532 116.859C81.9545 117.195 82.2062 117.362 82.5083 117.362C82.6761 117.362 82.8355 117.354 82.9865 117.337C83.1376 117.304 83.2886 117.287 83.4396 117.287C83.6074 117.287 83.75 117.371 83.8675 117.539C84.0018 117.706 84.0689 117.891 84.0689 118.092C84.0689 118.495 83.8759 118.814 83.49 119.049C83.1208 119.267 82.6174 119.376 81.9797 119.376C81.5266 119.376 81.0652 119.242 80.5953 118.973C80.1422 118.688 79.7647 118.252 79.4626 117.664C79.1606 117.06 79.0096 116.314 79.0096 115.424C79.0096 113.511 79.0431 111.892 79.1102 110.566C79.1941 108.989 79.2361 107 79.2361 104.601C79.2361 103.846 79.278 103.317 79.362 103.015C79.4626 102.78 79.622 102.604 79.8402 102.487C80.0751 102.352 80.3184 102.285 80.5701 102.285C80.8219 102.285 81.04 102.327 81.2246 102.411C81.426 102.495 81.5602 102.629 81.6273 102.814C81.6944 103.015 81.7364 103.216 81.7532 103.418C81.7867 103.602 81.8035 103.871 81.8035 104.223C81.8035 104.911 81.7783 105.574 81.728 106.212C81.6944 106.984 81.6777 107.546 81.6777 107.898C81.5434 110.852 81.4763 113.343 81.4763 115.374ZM97.2383 118.067C97.2383 118.436 97.0369 118.747 96.6342 118.999C96.2482 119.25 95.8875 119.376 95.5518 119.376C94.9142 119.376 94.4024 119.301 94.0164 119.15C93.6473 118.982 93.3033 118.68 92.9844 118.243C92.5481 118.629 91.9524 118.923 91.1973 119.124C90.4422 119.309 89.7458 119.401 89.1081 119.401C88.0677 119.401 87.2119 119.124 86.5407 118.571C85.8695 118 85.5339 117.169 85.5339 116.079C85.5339 115.609 85.6597 115.181 85.9115 114.795C86.1632 114.392 86.5072 114.04 86.9435 113.738C87.4301 113.419 87.9838 113.176 88.6047 113.008C89.2256 112.823 89.8716 112.731 90.5429 112.731C90.8953 112.731 91.3148 112.798 91.8014 112.932C92.288 113.067 92.6656 113.209 92.9341 113.36V112.958C92.9341 112.051 92.7159 111.431 92.2796 111.095C91.8434 110.743 91.1386 110.566 90.1653 110.566C89.88 110.566 89.5948 110.625 89.3095 110.743C89.041 110.86 88.7306 111.019 88.3782 111.221C87.9083 111.472 87.4636 111.598 87.0441 111.598C86.8931 111.598 86.7505 111.498 86.6162 111.296C86.482 111.078 86.4149 110.885 86.4149 110.717C86.4149 110.231 86.6414 109.811 87.0945 109.459C87.5643 109.106 88.1181 108.846 88.7557 108.679C89.3934 108.494 89.9639 108.402 90.4674 108.402C90.9708 108.402 91.5497 108.502 92.2041 108.704C92.8586 108.888 93.3956 109.148 93.8151 109.484C94.3185 109.92 94.7044 110.432 94.9729 111.019C95.2582 111.59 95.4008 112.219 95.4008 112.907C95.4008 113.125 95.384 113.453 95.3505 113.889C95.3169 114.359 95.3001 114.761 95.3001 115.097C95.3001 115.248 95.2834 115.475 95.2498 115.777C95.2162 116.146 95.1995 116.439 95.1995 116.658C95.1995 116.859 95.275 117.035 95.426 117.186C95.577 117.32 95.7532 117.388 95.9546 117.388L96.6594 117.362C96.8439 117.362 96.9866 117.43 97.0873 117.564C97.1879 117.698 97.2383 117.866 97.2383 118.067ZM89.1333 117.413C89.8549 117.413 90.459 117.337 90.9456 117.186C91.4322 117.035 92.0196 116.758 92.7076 116.356C92.7747 116.07 92.8166 115.693 92.8334 115.223C91.9105 114.787 91.147 114.568 90.5429 114.568C89.8549 114.568 89.2424 114.694 88.7054 114.946C88.1684 115.198 87.8999 115.642 87.8999 116.28C87.8999 116.599 88.0342 116.867 88.3027 117.086C88.5712 117.304 88.848 117.413 89.1333 117.413ZM106.74 111.649C106.488 111.649 106.27 111.59 106.085 111.472C105.918 111.338 105.741 111.162 105.557 110.944C105.372 110.726 105.171 110.583 104.953 110.516C104.751 110.449 104.516 110.415 104.248 110.415C103.761 110.415 103.283 110.566 102.813 110.868C102.36 111.154 101.983 111.556 101.681 112.077C101.395 112.597 101.253 113.176 101.253 113.813C101.253 114.518 101.387 115.105 101.655 115.575C101.941 116.045 102.385 116.456 102.989 116.809C103.208 116.926 103.459 117.018 103.745 117.086C104.047 117.153 104.307 117.186 104.525 117.186C105.045 117.186 105.716 116.96 106.538 116.507C106.606 116.473 106.731 116.414 106.916 116.33C107.117 116.23 107.268 116.179 107.369 116.179C107.554 116.179 107.763 116.272 107.998 116.456C108.233 116.624 108.351 116.834 108.351 117.086C108.351 117.589 108.133 118.017 107.696 118.369C107.277 118.722 106.748 118.982 106.111 119.15C105.473 119.317 104.844 119.401 104.223 119.401C103.233 119.401 102.31 119.175 101.454 118.722C100.598 118.269 99.9186 117.639 99.4152 116.834C98.9117 116.028 98.66 115.122 98.66 114.115C98.66 113.025 98.9034 112.043 99.39 111.17C99.8766 110.281 100.531 109.585 101.353 109.081C102.192 108.561 103.098 108.301 104.072 108.301C105.011 108.301 105.876 108.486 106.664 108.855C107.47 109.224 107.873 109.786 107.873 110.541C107.873 111.279 107.495 111.649 106.74 111.649ZM110.115 113.511C110.115 112.488 110.341 111.64 110.794 110.969C111.247 110.281 111.877 109.635 112.682 109.031C112.917 108.863 113.311 108.72 113.865 108.603C114.419 108.469 114.906 108.402 115.325 108.402C115.828 108.402 116.357 108.511 116.911 108.729C117.481 108.93 117.943 109.165 118.295 109.434C118.916 109.887 119.344 110.415 119.579 111.019C119.814 111.607 119.931 112.311 119.931 113.134C119.931 113.486 119.73 113.83 119.327 114.166C118.941 114.485 118.522 114.644 118.069 114.644L117.112 114.619C116.626 114.619 115.929 114.636 115.023 114.669L114.494 114.694C114.125 114.728 113.848 114.745 113.664 114.745C113.395 114.745 113.026 114.711 112.556 114.644C112.623 115.433 112.917 116.054 113.437 116.507C113.957 116.943 114.52 117.161 115.124 117.161C116.181 117.161 116.919 116.951 117.339 116.532C117.691 116.28 117.926 116.121 118.043 116.054C118.161 115.986 118.346 115.953 118.597 115.953C118.866 115.953 119.101 116.079 119.302 116.33C119.503 116.582 119.604 116.834 119.604 117.086C119.604 117.371 119.428 117.664 119.075 117.967C118.74 118.252 118.278 118.554 117.691 118.873C117.372 119.007 116.936 119.124 116.382 119.225C115.828 119.326 115.367 119.376 114.998 119.376C114.41 119.376 113.756 119.208 113.034 118.873C112.313 118.52 111.776 118.134 111.424 117.715C111.071 117.295 110.761 116.7 110.492 115.928C110.241 115.156 110.115 114.35 110.115 113.511ZM115.124 112.832C116.315 112.832 117.188 112.79 117.741 112.706C117.708 112.219 117.557 111.825 117.288 111.523C117.02 111.204 116.651 110.935 116.181 110.717C116.03 110.65 115.896 110.6 115.778 110.566C115.661 110.533 115.526 110.516 115.375 110.516C114.603 110.516 113.949 110.726 113.412 111.145C112.892 111.565 112.581 112.102 112.481 112.756C113.32 112.807 114.201 112.832 115.124 112.832Z" fill="white"/>
</svg>
