<svg width="95" height="64" viewBox="0 0 95 64" fill="none" xmlns="http://www.w3.org/2000/svg">
    <path d="M0 11L95 11L94.895 65H12L0 11Z" fill="#A76148"/>
    <path d="M0 11H89V-4.97922e-05L10.4201 4.88386e-06L0 11Z" fill="#814935"/>
    <path d="M38.856 29.36C39.8373 29.52 40.5893 29.888 41.112 30.464C41.6347 31.0293 41.896 31.7333 41.896 32.576C41.896 33.2267 41.7253 33.8293 41.384 34.384C41.0427 34.928 40.52 35.3653 39.816 35.696C39.1227 36.0267 38.2693 36.192 37.256 36.192C36.4667 36.192 35.688 36.0907 34.92 35.888C34.1627 35.6747 33.5173 35.376 32.984 34.992L33.992 33.008C34.4187 33.328 34.9093 33.5787 35.464 33.76C36.0293 33.9307 36.6053 34.016 37.192 34.016C37.8427 34.016 38.3547 33.8933 38.728 33.648C39.1013 33.392 39.288 33.0347 39.288 32.576C39.288 31.6587 38.5893 31.2 37.192 31.2H36.008V29.488L38.312 26.88H33.544V24.8H41.384V26.48L38.856 29.36ZM46.4047 28.528C46.7034 28.112 47.1034 27.7973 47.6047 27.584C48.1167 27.3707 48.7034 27.264 49.3647 27.264V29.568C49.0874 29.5467 48.9008 29.536 48.8047 29.536C48.0901 29.536 47.5301 29.7387 47.1247 30.144C46.7194 30.5387 46.5167 31.136 46.5167 31.936V36H44.0207V27.392H46.4047V28.528ZM59.9387 24.128V36H57.5547V35.008C56.9361 35.7547 56.0401 36.128 54.8667 36.128C54.0561 36.128 53.3201 35.9467 52.6587 35.584C52.0081 35.2213 51.4961 34.704 51.1227 34.032C50.7494 33.36 50.5627 32.5813 50.5627 31.696C50.5627 30.8107 50.7494 30.032 51.1227 29.36C51.4961 28.688 52.0081 28.1707 52.6587 27.808C53.3201 27.4453 54.0561 27.264 54.8667 27.264C55.9654 27.264 56.8241 27.6107 57.4427 28.304V24.128H59.9387ZM55.2987 34.08C55.9281 34.08 56.4507 33.8667 56.8667 33.44C57.2827 33.0027 57.4907 32.4213 57.4907 31.696C57.4907 30.9707 57.2827 30.3947 56.8667 29.968C56.4507 29.5307 55.9281 29.312 55.2987 29.312C54.6587 29.312 54.1307 29.5307 53.7147 29.968C53.2987 30.3947 53.0907 30.9707 53.0907 31.696C53.0907 32.4213 53.2987 33.0027 53.7147 33.44C54.1307 33.8667 54.6587 34.08 55.2987 34.08Z" fill="white"/>
    <path opacity="0.7" d="M35.466 48.836C35.102 48.836 34.794 48.8267 34.542 48.808C34.2993 48.78 33.9773 48.738 33.576 48.682L33.562 50.152C33.5527 50.404 33.548 50.7633 33.548 51.23C33.548 51.4727 33.478 51.664 33.338 51.804C33.2073 51.9347 33.058 52 32.89 52C32.582 52 32.3533 51.9627 32.204 51.888C32.0547 51.804 31.98 51.6593 31.98 51.454C31.98 51.1833 32.0033 50.8007 32.05 50.306C32.1527 49.242 32.204 48.15 32.204 47.03C32.204 45.9847 32.1713 45 32.106 44.076C32.1153 43.9453 32.1807 43.796 32.302 43.628C32.4327 43.46 32.596 43.3667 32.792 43.348C33.0067 43.348 33.3473 43.3107 33.814 43.236C34.2993 43.1613 34.668 43.124 34.92 43.124C35.6853 43.124 36.278 43.1987 36.698 43.348C37.1273 43.4973 37.5567 43.7447 37.986 44.09C38.4527 44.818 38.686 45.3313 38.686 45.63C38.686 46.2553 38.56 46.8107 38.308 47.296C38.056 47.7813 37.6873 48.1593 37.202 48.43C36.7167 48.7007 36.138 48.836 35.466 48.836ZM35.144 44.314C34.8453 44.314 34.584 44.3327 34.36 44.37C34.1453 44.398 33.884 44.4493 33.576 44.524C33.6133 45.3827 33.632 46.008 33.632 46.4C33.632 46.8013 33.618 47.1373 33.59 47.408C33.9913 47.492 34.3087 47.548 34.542 47.576C34.7753 47.5947 35.0367 47.604 35.326 47.604C36.0167 47.604 36.502 47.4267 36.782 47.072C37.0713 46.708 37.216 46.288 37.216 45.812C37.216 45.672 37.174 45.4993 37.09 45.294C37.006 45.0887 36.9313 44.9533 36.866 44.888C36.614 44.664 36.3667 44.5147 36.124 44.44C35.8907 44.356 35.564 44.314 35.144 44.314ZM41.308 49.83C41.308 50.1847 41.3594 50.46 41.462 50.656C41.574 50.8427 41.714 50.936 41.882 50.936C41.9754 50.936 42.064 50.9313 42.148 50.922C42.232 50.9033 42.316 50.894 42.4 50.894C42.4934 50.894 42.5727 50.9407 42.638 51.034C42.7127 51.1273 42.75 51.23 42.75 51.342C42.75 51.566 42.6427 51.7433 42.428 51.874C42.2227 51.9953 41.9427 52.056 41.588 52.056C41.336 52.056 41.0794 51.9813 40.818 51.832C40.566 51.6733 40.356 51.4307 40.188 51.104C40.02 50.768 39.936 50.3527 39.936 49.858C39.936 48.794 39.9547 47.8933 39.992 47.156C40.0387 46.2787 40.062 45.1727 40.062 43.838C40.062 43.418 40.0854 43.124 40.132 42.956C40.188 42.8253 40.2767 42.7273 40.398 42.662C40.5287 42.5873 40.664 42.55 40.804 42.55C40.944 42.55 41.0654 42.5733 41.168 42.62C41.28 42.6667 41.3547 42.7413 41.392 42.844C41.4294 42.956 41.4527 43.068 41.462 43.18C41.4807 43.2827 41.49 43.432 41.49 43.628C41.49 44.0107 41.476 44.3793 41.448 44.734C41.4294 45.1633 41.42 45.476 41.42 45.672C41.3454 47.3147 41.308 48.7007 41.308 49.83ZM50.0749 51.328C50.0749 51.5333 49.9629 51.706 49.7389 51.846C49.5242 51.986 49.3236 52.056 49.1369 52.056C48.7822 52.056 48.4976 52.014 48.2829 51.93C48.0776 51.8367 47.8862 51.6687 47.7089 51.426C47.4662 51.6407 47.1349 51.804 46.7149 51.916C46.2949 52.0187 45.9076 52.07 45.5529 52.07C44.9742 52.07 44.4982 51.916 44.1249 51.608C43.7516 51.2907 43.5649 50.8287 43.5649 50.222C43.5649 49.9607 43.6349 49.7227 43.7749 49.508C43.9149 49.284 44.1062 49.088 44.3489 48.92C44.6196 48.7427 44.9276 48.6073 45.2729 48.514C45.6182 48.4113 45.9776 48.36 46.3509 48.36C46.5469 48.36 46.7802 48.3973 47.0509 48.472C47.3216 48.5467 47.5316 48.626 47.6809 48.71V48.486C47.6809 47.982 47.5596 47.6367 47.3169 47.45C47.0742 47.254 46.6822 47.156 46.1409 47.156C45.9822 47.156 45.8236 47.1887 45.6649 47.254C45.5156 47.3193 45.3429 47.408 45.1469 47.52C44.8856 47.66 44.6382 47.73 44.4049 47.73C44.3209 47.73 44.2416 47.674 44.1669 47.562C44.0922 47.4407 44.0549 47.3333 44.0549 47.24C44.0549 46.9693 44.1809 46.736 44.4329 46.54C44.6942 46.344 45.0022 46.1993 45.3569 46.106C45.7116 46.0033 46.0289 45.952 46.3089 45.952C46.5889 45.952 46.9109 46.008 47.2749 46.12C47.6389 46.2227 47.9376 46.3673 48.1709 46.554C48.4509 46.7967 48.6656 47.0813 48.8149 47.408C48.9736 47.7253 49.0529 48.0753 49.0529 48.458C49.0529 48.5793 49.0436 48.7613 49.0249 49.004C49.0062 49.2653 48.9969 49.4893 48.9969 49.676C48.9969 49.76 48.9876 49.886 48.9689 50.054C48.9502 50.2593 48.9409 50.4227 48.9409 50.544C48.9409 50.656 48.9829 50.754 49.0669 50.838C49.1509 50.9127 49.2489 50.95 49.3609 50.95L49.7529 50.936C49.8556 50.936 49.9349 50.9733 49.9909 51.048C50.0469 51.1227 50.0749 51.216 50.0749 51.328ZM45.5669 50.964C45.9682 50.964 46.3042 50.922 46.5749 50.838C46.8456 50.754 47.1722 50.6 47.5549 50.376C47.5922 50.2173 47.6156 50.0073 47.6249 49.746C47.1116 49.5033 46.6869 49.382 46.3509 49.382C45.9682 49.382 45.6276 49.452 45.3289 49.592C45.0302 49.732 44.8809 49.9793 44.8809 50.334C44.8809 50.5113 44.9556 50.6607 45.1049 50.782C45.2542 50.9033 45.4082 50.964 45.5669 50.964ZM55.3597 47.758C55.2197 47.758 55.0983 47.7253 54.9957 47.66C54.9023 47.5853 54.8043 47.4873 54.7017 47.366C54.599 47.2447 54.487 47.1653 54.3657 47.128C54.2537 47.0907 54.123 47.072 53.9737 47.072C53.703 47.072 53.437 47.156 53.1757 47.324C52.9237 47.4827 52.7137 47.7067 52.5457 47.996C52.387 48.2853 52.3077 48.6073 52.3077 48.962C52.3077 49.354 52.3823 49.6807 52.5317 49.942C52.6903 50.2033 52.9377 50.432 53.2737 50.628C53.395 50.6933 53.535 50.7447 53.6937 50.782C53.8617 50.8193 54.0063 50.838 54.1277 50.838C54.417 50.838 54.7903 50.712 55.2477 50.46C55.285 50.4413 55.355 50.4087 55.4577 50.362C55.5697 50.306 55.6537 50.278 55.7097 50.278C55.8123 50.278 55.929 50.3293 56.0597 50.432C56.1903 50.5253 56.2557 50.642 56.2557 50.782C56.2557 51.062 56.1343 51.3 55.8917 51.496C55.6583 51.692 55.3643 51.8367 55.0097 51.93C54.655 52.0233 54.305 52.07 53.9597 52.07C53.409 52.07 52.8957 51.944 52.4197 51.692C51.9437 51.44 51.5657 51.09 51.2857 50.642C51.0057 50.194 50.8657 49.69 50.8657 49.13C50.8657 48.5233 51.001 47.9773 51.2717 47.492C51.5423 46.9973 51.9063 46.61 52.3637 46.33C52.8303 46.0407 53.3343 45.896 53.8757 45.896C54.3983 45.896 54.879 45.9987 55.3177 46.204C55.7657 46.4093 55.9897 46.722 55.9897 47.142C55.9897 47.5527 55.7797 47.758 55.3597 47.758ZM57.2368 48.794C57.2368 48.2247 57.3628 47.7533 57.6148 47.38C57.8668 46.9973 58.2168 46.638 58.6648 46.302C58.7954 46.2087 59.0148 46.1293 59.3228 46.064C59.6308 45.9893 59.9014 45.952 60.1348 45.952C60.4148 45.952 60.7088 46.0127 61.0168 46.134C61.3341 46.246 61.5908 46.3767 61.7868 46.526C62.1321 46.778 62.3701 47.072 62.5008 47.408C62.6314 47.7347 62.6968 48.1267 62.6968 48.584C62.6968 48.78 62.5848 48.9713 62.3608 49.158C62.1461 49.3353 61.9128 49.424 61.6608 49.424L61.1288 49.41C60.8581 49.41 60.4708 49.4193 59.9668 49.438L59.6728 49.452C59.4674 49.4707 59.3134 49.48 59.2108 49.48C59.0614 49.48 58.8561 49.4613 58.5948 49.424C58.6321 49.8627 58.7954 50.208 59.0848 50.46C59.3741 50.7027 59.6868 50.824 60.0228 50.824C60.6108 50.824 61.0214 50.7073 61.2548 50.474C61.4508 50.334 61.5814 50.2453 61.6468 50.208C61.7121 50.1707 61.8148 50.152 61.9548 50.152C62.1041 50.152 62.2348 50.222 62.3468 50.362C62.4588 50.502 62.5148 50.642 62.5148 50.782C62.5148 50.9407 62.4168 51.104 62.2208 51.272C62.0341 51.4307 61.7774 51.5987 61.4508 51.776C61.2734 51.8507 61.0308 51.916 60.7228 51.972C60.4148 52.028 60.1581 52.056 59.9528 52.056C59.6261 52.056 59.2621 51.9627 58.8608 51.776C58.4594 51.58 58.1608 51.3653 57.9648 51.132C57.7688 50.8987 57.5961 50.5673 57.4468 50.138C57.3068 49.7087 57.2368 49.2607 57.2368 48.794ZM60.0228 48.416C60.6854 48.416 61.1708 48.3927 61.4788 48.346C61.4601 48.0753 61.3761 47.856 61.2268 47.688C61.0774 47.5107 60.8721 47.3613 60.6108 47.24C60.5268 47.2027 60.4521 47.1747 60.3868 47.156C60.3214 47.1373 60.2468 47.128 60.1628 47.128C59.7334 47.128 59.3694 47.2447 59.0708 47.478C58.7814 47.7113 58.6088 48.01 58.5528 48.374C59.0194 48.402 59.5094 48.416 60.0228 48.416Z" fill="white"/>
</svg>
