<svg width="172" height="116" viewBox="0 0 172 116" fill="none" xmlns="http://www.w3.org/2000/svg">
    <path d="M0.585938 19.9131L171.387 19.9131L171.199 117H22.1609L0.585938 19.9131Z" fill="#A76148"/>
    <path d="M0.585938 19.9128H160.6V0.135653L19.3203 0.135751L0.585938 19.9128Z" fill="#814935"/>
    <path d="M70.4446 53.7513C72.2089 54.039 73.561 54.7006 74.5007 55.7362C75.4404 56.7526 75.9102 58.0184 75.9102 59.5334C75.9102 60.7033 75.6034 61.7868 74.9897 62.784C74.376 63.7621 73.4363 64.5484 72.1706 65.1429C70.924 65.7374 69.3898 66.0347 67.5679 66.0347C66.1488 66.0347 64.7488 65.8525 63.368 65.4881C62.0064 65.1045 60.8461 64.5676 59.8872 63.8772L61.6995 60.3101C62.4666 60.8854 63.3488 61.3361 64.3461 61.6621C65.3625 61.969 66.3981 62.1224 67.4529 62.1224C68.6227 62.1224 69.5432 61.9019 70.2144 61.4608C70.8857 61.0005 71.2213 60.3581 71.2213 59.5334C71.2213 57.8841 69.9651 57.0595 67.4529 57.0595H65.3241V53.9815L69.4665 49.2925H60.8941V45.5529H74.9897V48.5734L70.4446 53.7513ZM84.0165 52.2555C84.5535 51.5075 85.2727 50.9418 86.174 50.5582C87.0946 50.1747 88.1493 49.9829 89.3384 49.9829V54.1253C88.8397 54.0869 88.5041 54.0678 88.3315 54.0678C87.0466 54.0678 86.0398 54.4321 85.311 55.1609C84.5823 55.8705 84.2179 56.9444 84.2179 58.3827V65.6895H79.7303V50.213H84.0165V52.2555ZM108.349 44.3447V65.6895H104.063V63.9059C102.951 65.2484 101.34 65.9196 99.2304 65.9196C97.7729 65.9196 96.4497 65.5936 95.2607 64.9415C94.0908 64.2895 93.1703 63.3594 92.4991 62.1512C91.8279 60.943 91.4922 59.543 91.4922 57.9513C91.4922 56.3595 91.8279 54.9595 92.4991 53.7513C93.1703 52.5431 94.0908 51.613 95.2607 50.961C96.4497 50.3089 97.7729 49.9829 99.2304 49.9829C101.206 49.9829 102.75 50.6062 103.862 51.8527V44.3447H108.349ZM100.007 62.2375C101.139 62.2375 102.078 61.8539 102.826 61.0868C103.574 60.3005 103.948 59.2553 103.948 57.9513C103.948 56.6472 103.574 55.6116 102.826 54.8445C102.078 54.0582 101.139 53.665 100.007 53.665C98.8565 53.665 97.9072 54.0582 97.1593 54.8445C96.4113 55.6116 96.0374 56.6472 96.0374 57.9513C96.0374 59.2553 96.4113 60.3005 97.1593 61.0868C97.9072 61.8539 98.8565 62.2375 100.007 62.2375Z" fill="white"/>
    <path opacity="0.7" d="M64.3498 88.3632C63.6953 88.3632 63.1416 88.3464 62.6885 88.3128C62.2522 88.2625 61.6733 88.187 60.9517 88.0863L60.9266 90.7292C60.9098 91.1823 60.9014 91.8283 60.9014 92.6674C60.9014 93.1037 60.7755 93.4477 60.5238 93.6994C60.2889 93.9343 60.0204 94.0518 59.7184 94.0518C59.1646 94.0518 58.7535 93.9846 58.485 93.8504C58.2165 93.6994 58.0823 93.4393 58.0823 93.0701C58.0823 92.5835 58.1242 91.8955 58.2081 91.0061C58.3927 89.0931 58.485 87.1298 58.485 85.1161C58.485 83.2367 58.4263 81.4664 58.3088 79.8051C58.3256 79.5702 58.443 79.3017 58.6612 78.9997C58.8961 78.6976 59.1898 78.5298 59.5422 78.4962C59.9281 78.4962 60.5406 78.4291 61.3796 78.2949C62.2522 78.1606 62.915 78.0935 63.3681 78.0935C64.7441 78.0935 65.8097 78.2278 66.5648 78.4962C67.3367 78.7647 68.1086 79.2094 68.8805 79.8303C69.7195 81.1392 70.139 82.0621 70.139 82.5991C70.139 83.7234 69.9125 84.7218 69.4594 85.5944C69.0064 86.467 68.3435 87.1466 67.4709 87.6332C66.5984 88.1199 65.558 88.3632 64.3498 88.3632ZM63.7708 80.233C63.2339 80.233 62.764 80.2666 62.3613 80.3337C61.9753 80.3841 61.5055 80.4763 60.9517 80.6106C61.0188 82.1544 61.0524 83.2787 61.0524 83.9835C61.0524 84.705 61.0272 85.3091 60.9769 85.7958C61.6985 85.9468 62.269 86.0475 62.6885 86.0978C63.108 86.1314 63.5779 86.1481 64.0981 86.1481C65.3398 86.1481 66.2124 85.8293 66.7158 85.1917C67.236 84.5372 67.4961 83.7821 67.4961 82.9263C67.4961 82.6746 67.4206 82.3641 67.2696 81.995C67.1186 81.6258 66.9843 81.3825 66.8668 81.265C66.4138 80.8623 65.9691 80.5938 65.5328 80.4596C65.1133 80.3085 64.526 80.233 63.7708 80.233ZM74.8532 90.1503C74.8532 90.788 74.9455 91.283 75.1301 91.6354C75.3315 91.971 75.5832 92.1388 75.8852 92.1388C76.0531 92.1388 76.2125 92.1304 76.3635 92.1136C76.5145 92.0801 76.6655 92.0633 76.8166 92.0633C76.9844 92.0633 77.127 92.1472 77.2445 92.315C77.3787 92.4828 77.4458 92.6674 77.4458 92.8687C77.4458 93.2715 77.2529 93.5903 76.8669 93.8252C76.4977 94.0434 75.9943 94.1524 75.3567 94.1524C74.9036 94.1524 74.4421 94.0182 73.9723 93.7497C73.5192 93.4644 73.1416 93.0281 72.8396 92.4408C72.5375 91.8367 72.3865 91.09 72.3865 90.2006C72.3865 88.2877 72.4201 86.6683 72.4872 85.3427C72.5711 83.7653 72.6131 81.7768 72.6131 79.3772C72.6131 78.6221 72.655 78.0935 72.7389 77.7915C72.8396 77.5565 72.999 77.3803 73.2171 77.2629C73.4521 77.1286 73.6954 77.0615 73.9471 77.0615C74.1988 77.0615 74.417 77.1035 74.6015 77.1874C74.8029 77.2713 74.9371 77.4055 75.0043 77.5901C75.0714 77.7915 75.1133 77.9928 75.1301 78.1942C75.1637 78.3788 75.1805 78.6473 75.1805 78.9997C75.1805 79.6877 75.1553 80.3505 75.105 80.9881C75.0714 81.7601 75.0546 82.3222 75.0546 82.6746C74.9204 85.628 74.8532 88.1199 74.8532 90.1503ZM90.6152 92.8436C90.6152 93.2127 90.4139 93.5232 90.0111 93.7749C89.6252 94.0266 89.2644 94.1524 88.9288 94.1524C88.2911 94.1524 87.7793 94.0769 87.3934 93.9259C87.0242 93.7581 86.6802 93.4561 86.3614 93.0198C85.9251 93.4057 85.3294 93.6994 84.5743 93.9007C83.8191 94.0853 83.1227 94.1776 82.4851 94.1776C81.4447 94.1776 80.5889 93.9007 79.9177 93.347C79.2465 92.7764 78.9108 91.9458 78.9108 90.8551C78.9108 90.3852 79.0367 89.9573 79.2884 89.5714C79.5401 89.1686 79.8841 88.8162 80.3204 88.5142C80.807 88.1954 81.3608 87.9521 81.9817 87.7842C82.6026 87.5997 83.2486 87.5074 83.9198 87.5074C84.2722 87.5074 84.6917 87.5745 85.1784 87.7087C85.665 87.843 86.0426 87.9856 86.311 88.1366V87.7339C86.311 86.8278 86.0929 86.2069 85.6566 85.8713C85.2203 85.5189 84.5155 85.3427 83.5423 85.3427C83.257 85.3427 82.9717 85.4014 82.6865 85.5189C82.418 85.6363 82.1075 85.7958 81.7551 85.9971C81.2853 86.2488 80.8406 86.3747 80.4211 86.3747C80.2701 86.3747 80.1274 86.274 79.9932 86.0726C79.8589 85.8545 79.7918 85.6615 79.7918 85.4937C79.7918 85.0071 80.0184 84.5876 80.4714 84.2352C80.9413 83.8828 81.495 83.6227 82.1327 83.4549C82.7704 83.2703 83.3409 83.178 83.8443 83.178C84.3477 83.178 84.9267 83.2787 85.5811 83.4801C86.2355 83.6646 86.7725 83.9247 87.192 84.2603C87.6954 84.6966 88.0814 85.2084 88.3499 85.7958C88.6351 86.3663 88.7778 86.9956 88.7778 87.6836C88.7778 87.9017 88.761 88.2289 88.7274 88.6652C88.6939 89.1351 88.6771 89.5378 88.6771 89.8734C88.6771 90.0244 88.6603 90.251 88.6267 90.553C88.5932 90.9222 88.5764 91.2159 88.5764 91.434C88.5764 91.6354 88.6519 91.8116 88.8029 91.9626C88.954 92.0968 89.1302 92.164 89.3315 92.164L90.0363 92.1388C90.2209 92.1388 90.3635 92.2059 90.4642 92.3401C90.5649 92.4744 90.6152 92.6422 90.6152 92.8436ZM82.5103 92.1891C83.2318 92.1891 83.8359 92.1136 84.3226 91.9626C84.8092 91.8116 85.3965 91.5347 86.0845 91.132C86.1516 90.8467 86.1936 90.4691 86.2104 89.9993C85.2874 89.563 84.5239 89.3448 83.9198 89.3448C83.2318 89.3448 82.6193 89.4707 82.0824 89.7224C81.5454 89.9741 81.2769 90.4188 81.2769 91.0564C81.2769 91.3753 81.4111 91.6438 81.6796 91.8619C81.9481 92.0801 82.225 92.1891 82.5103 92.1891ZM100.117 86.425C99.8651 86.425 99.6469 86.3663 99.4624 86.2488C99.2945 86.1146 99.1184 85.9384 98.9338 85.7202C98.7492 85.5021 98.5478 85.3595 98.3297 85.2923C98.1283 85.2252 97.8934 85.1917 97.6249 85.1917C97.1383 85.1917 96.66 85.3427 96.1902 85.6447C95.7371 85.93 95.3595 86.3327 95.0575 86.8529C94.7722 87.3731 94.6296 87.9521 94.6296 88.5897C94.6296 89.2945 94.7638 89.8818 95.0323 90.3517C95.3176 90.8215 95.7623 91.2326 96.3664 91.585C96.5845 91.7025 96.8362 91.7948 97.1215 91.8619C97.4235 91.929 97.6836 91.9626 97.9018 91.9626C98.422 91.9626 99.0932 91.7361 99.9154 91.283C99.9825 91.2494 100.108 91.1907 100.293 91.1068C100.494 91.0061 100.645 90.9558 100.746 90.9558C100.931 90.9558 101.14 91.0481 101.375 91.2326C101.61 91.4004 101.728 91.6102 101.728 91.8619C101.728 92.3653 101.51 92.7932 101.073 93.1456C100.654 93.498 100.125 93.7581 99.4875 93.9259C98.8499 94.0937 98.2206 94.1776 97.5997 94.1776C96.6097 94.1776 95.6867 93.9511 94.8309 93.498C93.9751 93.0449 93.2955 92.4157 92.7921 91.6102C92.2887 90.8047 92.037 89.8986 92.037 88.8918C92.037 87.801 92.2803 86.8194 92.7669 85.9468C93.2536 85.0574 93.908 84.361 94.7303 83.8576C95.5693 83.3374 96.4754 83.0773 97.4487 83.0773C98.3884 83.0773 99.2526 83.2619 100.041 83.6311C100.847 84.0002 101.249 84.5624 101.249 85.3175C101.249 86.0559 100.872 86.425 100.117 86.425ZM103.492 88.2877C103.492 87.2641 103.718 86.4166 104.171 85.7454C104.624 85.0574 105.254 84.4114 106.059 83.8073C106.294 83.6395 106.688 83.4968 107.242 83.3794C107.796 83.2451 108.282 83.178 108.702 83.178C109.205 83.178 109.734 83.2871 110.288 83.5052C110.858 83.7066 111.32 83.9415 111.672 84.21C112.293 84.6631 112.721 85.1917 112.956 85.7958C113.191 86.3831 113.308 87.0879 113.308 87.9101C113.308 88.2625 113.107 88.6065 112.704 88.9421C112.318 89.2609 111.899 89.4203 111.446 89.4203L110.489 89.3952C110.002 89.3952 109.306 89.412 108.4 89.4455L107.871 89.4707C107.502 89.5042 107.225 89.521 107.041 89.521C106.772 89.521 106.403 89.4875 105.933 89.4203C106 90.209 106.294 90.8299 106.814 91.283C107.334 91.7193 107.897 91.9374 108.501 91.9374C109.558 91.9374 110.296 91.7277 110.716 91.3081C111.068 91.0564 111.303 90.897 111.42 90.8299C111.538 90.7628 111.722 90.7292 111.974 90.7292C112.243 90.7292 112.478 90.8551 112.679 91.1068C112.88 91.3585 112.981 91.6102 112.981 91.8619C112.981 92.1472 112.805 92.4408 112.452 92.7429C112.117 93.0281 111.655 93.3302 111.068 93.649C110.749 93.7833 110.313 93.9007 109.759 94.0014C109.205 94.1021 108.744 94.1524 108.375 94.1524C107.787 94.1524 107.133 93.9846 106.411 93.649C105.69 93.2966 105.153 92.9107 104.801 92.4912C104.448 92.0717 104.138 91.476 103.869 90.7041C103.617 89.9321 103.492 89.1267 103.492 88.2877ZM108.501 87.6081C109.692 87.6081 110.565 87.5661 111.118 87.4822C111.085 86.9956 110.934 86.6012 110.665 86.2992C110.397 85.9803 110.028 85.7119 109.558 85.4937C109.407 85.4266 109.273 85.3762 109.155 85.3427C109.038 85.3091 108.903 85.2923 108.752 85.2923C107.98 85.2923 107.326 85.5021 106.789 85.9216C106.269 86.3411 105.958 86.8781 105.858 87.5325C106.697 87.5829 107.578 87.6081 108.501 87.6081Z" fill="white"/>
</svg>
