<svg width="57" height="16" viewBox="0 0 57 16" fill="none" xmlns="http://www.w3.org/2000/svg">
    <path d="M8.256 3.456V12H6.864L2.604 6.552V12H0.852V3.456H2.232L6.492 8.892V3.456H8.256ZM11.9692 3.456H17.8612V4.908H13.7932V6.924H17.6092V8.388H13.7932V10.548H17.8612V12H11.9692V3.456ZM28.6422 12H26.4582L24.3222 9.048L22.1862 12H20.0022L23.2542 7.668L20.0982 3.456H22.2822L24.3222 6.3L26.3862 3.456H28.5702L25.3782 7.668L28.6422 12ZM33.2302 4.98H30.5542V3.456H37.8022V4.98H35.1262V12H33.2302V4.98Z" fill="#EA7052"/>
    <path d="M49.7814 7.99999L46.4814 4.69999L47.4241 3.75732L51.6668 7.99999L47.4241 12.2427L46.4814 11.3L49.7814 7.99999Z" fill="#EA7052"/>
</svg>
