<svg width="15" height="15" viewBox="0 0 15 15" fill="none" xmlns="http://www.w3.org/2000/svg">
    <path d="M14.22 8.28746C14.7851 3.06562 8.49397 -0.731455 3.71052 1.08631C0.0456542 2.68757 -0.123983 8.74706 3.02293 12.0178C6.28977 15.3948 13.7608 12.6021 14.22 8.28746Z" fill="#7B7FDA"/>
    <g opacity="0.6">
    <path d="M8.39061 6.00524C8.39061 6.13229 8.28752 6.23554 8.16004 6.23554C8.03256 6.23554 7.92947 6.13229 7.92947 6.00524C7.92947 5.87818 8.03256 5.77493 8.16004 5.77493C8.28752 5.77493 8.39061 5.87818 8.39061 6.00524Z" stroke="#FCFBF9" strokeWidth="0.605038" strokeMiterlimit="10" strokeLinejoin="round"/>
    <path d="M7.27097 9.28323C8.87023 8.27048 9.65411 6.28908 9.12607 4.32153C7.15755 4.84806 5.83176 6.51833 5.75488 8.40904L7.27097 9.28323Z" stroke="#FCFBF9" strokeWidth="0.605038" strokeMiterlimit="10" strokeLinejoin="round"/>
    <path d="M7.27051 9.28317C7.54776 9.7316 7.62212 10.2934 7.49861 10.8149C8.25351 10.3035 8.68703 9.2605 8.33164 8.32837" stroke="#FCFBF9" strokeWidth="0.605038" strokeMiterlimit="10" strokeLinejoin="round"/>
    <path d="M5.764 8.41451C5.23721 8.3994 4.71294 8.61605 4.32227 8.98261C4.3878 8.07315 5.07464 7.17755 6.06016 7.01758" stroke="#FCFBF9" strokeWidth="0.605038" strokeMiterlimit="10" strokeLinejoin="round"/>
    <path d="M7.05257 9.15839C6.83707 9.79954 6.28508 10.3034 5.56799 10.4835C5.36509 9.77309 5.5264 9.04251 5.97379 8.53613" stroke="#FCFBF9" strokeWidth="0.605038" strokeMiterlimit="10" strokeLinejoin="round"/>
    </g>
</svg>
