<svg width="16" height="16" viewBox="0 0 16 16" fill="none" xmlns="http://www.w3.org/2000/svg">
    <path d="M7.99967 14.6666C4.31767 14.6666 1.33301 11.6819 1.33301 7.99992C1.33301 4.31792 4.31767 1.33325 7.99967 1.33325C11.6817 1.33325 14.6663 4.31792 14.6663 7.99992C14.6663 11.6819 11.6817 14.6666 7.99967 14.6666ZM7.99967 13.3333C9.41416 13.3333 10.7707 12.7713 11.7709 11.7712C12.7711 10.771 13.333 9.41441 13.333 7.99992C13.333 6.58543 12.7711 5.22888 11.7709 4.22868C10.7707 3.22849 9.41416 2.66659 7.99967 2.66659C6.58519 2.66659 5.22863 3.22849 4.22844 4.22868C3.22824 5.22888 2.66634 6.58543 2.66634 7.99992C2.66634 9.41441 3.22824 10.771 4.22844 11.7712C5.22863 12.7713 6.58519 13.3333 7.99967 13.3333ZM7.33301 9.99992H8.66634V11.3333H7.33301V9.99992ZM8.66634 8.90325V9.33325H7.33301V8.33325C7.33301 8.15644 7.40325 7.98687 7.52827 7.86185C7.65329 7.73682 7.82286 7.66659 7.99967 7.66659C8.18906 7.66657 8.37455 7.61278 8.53456 7.51147C8.69457 7.41016 8.82252 7.2655 8.90352 7.09431C8.98453 6.92312 9.01525 6.73245 8.99213 6.54448C8.969 6.35651 8.89298 6.17898 8.7729 6.03253C8.65282 5.88608 8.49362 5.77674 8.31382 5.71723C8.13403 5.65773 7.94103 5.6505 7.75729 5.69639C7.57355 5.74228 7.40662 5.83941 7.27592 5.97646C7.14522 6.11352 7.05613 6.28487 7.01901 6.47059L5.71101 6.20859C5.7921 5.80331 5.97935 5.42683 6.25362 5.11764C6.5279 4.80845 6.87935 4.57764 7.27207 4.4488C7.66478 4.31996 8.08467 4.29771 8.4888 4.38433C8.89293 4.47095 9.26681 4.66333 9.57222 4.9418C9.87763 5.22028 10.1036 5.57486 10.2271 5.96929C10.3505 6.36373 10.3671 6.78388 10.2749 7.18679C10.1828 7.5897 9.98531 7.96092 9.70269 8.26249C9.42007 8.56407 9.06243 8.78519 8.66634 8.90325Z" fill="#EA7052"/>
</svg>
