<svg width="69" height="14" viewBox="0 0 69 14" fill="none" xmlns="http://www.w3.org/2000/svg">
    <path d="M9.882 11.11V13H1.278V11.29L5.634 6.592C6.15 6.028 6.528 5.512 6.768 5.044C7.008 4.576 7.128 4.114 7.128 3.658C7.128 3.07 6.954 2.626 6.606 2.326C6.27 2.026 5.784 1.876 5.148 1.876C4.02 1.876 2.862 2.32 1.674 3.208L0.9 1.516C1.404 1.06 2.052 0.699999 2.844 0.436C3.636 0.16 4.434 0.0219997 5.238 0.0219997C6.522 0.0219997 7.536 0.34 8.28 0.975999C9.036 1.6 9.414 2.446 9.414 3.514C9.414 4.246 9.252 4.936 8.928 5.584C8.616 6.232 8.088 6.958 7.344 7.762L4.194 11.11H9.882ZM15.3205 4.108V6.61H12.8005V4.108H15.3205ZM15.3205 10.48V13H12.8005V10.48H15.3205ZM27.6961 10.498H25.8781V13H23.6101V10.498H18.0301V8.77L24.0241 0.184H25.8781V8.68H27.6961V10.498ZM23.6101 8.68V3.802L20.2261 8.68H23.6101ZM35.2051 4.81C36.0091 4.81 36.7171 4.984 37.3291 5.332C37.9411 5.668 38.4151 6.148 38.7511 6.772C39.0871 7.384 39.2551 8.092 39.2551 8.896C39.2551 9.736 39.0631 10.48 38.6791 11.128C38.2951 11.764 37.7431 12.262 37.0231 12.622C36.3031 12.97 35.4691 13.144 34.5211 13.144C33.7171 13.144 32.9251 13.012 32.1451 12.748C31.3651 12.472 30.7231 12.106 30.2191 11.65L30.9931 9.958C32.1571 10.846 33.3451 11.29 34.5571 11.29C35.3611 11.29 35.9731 11.092 36.3931 10.696C36.8251 10.288 37.0411 9.712 37.0411 8.968C37.0411 8.26 36.8191 7.696 36.3751 7.276C35.9431 6.844 35.3611 6.628 34.6291 6.628C34.1251 6.628 33.6511 6.724 33.2071 6.916C32.7631 7.096 32.3731 7.366 32.0371 7.726H30.6331V0.184H38.6611V1.984H32.9011V5.476C33.5491 5.032 34.3171 4.81 35.2051 4.81ZM44.4241 4.108V6.61H41.9041V4.108H44.4241ZM44.4241 10.48V13H41.9041V10.48H44.4241ZM56.3496 11.11V13H48.4476V11.11H51.2556V2.848L48.6456 4.414V2.344L52.2096 0.184H53.5596V11.11H56.3496ZM64.3086 4.81C65.1126 4.81 65.8206 4.984 66.4326 5.332C67.0446 5.668 67.5186 6.148 67.8546 6.772C68.1906 7.384 68.3586 8.092 68.3586 8.896C68.3586 9.736 68.1666 10.48 67.7826 11.128C67.3986 11.764 66.8466 12.262 66.1266 12.622C65.4066 12.97 64.5726 13.144 63.6246 13.144C62.8206 13.144 62.0286 13.012 61.2486 12.748C60.4686 12.472 59.8266 12.106 59.3226 11.65L60.0966 9.958C61.2606 10.846 62.4486 11.29 63.6606 11.29C64.4646 11.29 65.0766 11.092 65.4966 10.696C65.9286 10.288 66.1446 9.712 66.1446 8.968C66.1446 8.26 65.9226 7.696 65.4786 7.276C65.0466 6.844 64.4646 6.628 63.7326 6.628C63.2286 6.628 62.7546 6.724 62.3106 6.916C61.8666 7.096 61.4766 7.366 61.1406 7.726H59.7366V0.184H67.7646V1.984H62.0046V5.476C62.6526 5.032 63.4206 4.81 64.3086 4.81Z" fill="#313848"/>
</svg>
