<svg width="51" height="46" viewBox="0 0 51 46" fill="none" xmlns="http://www.w3.org/2000/svg">
    <path d="M47.6028 16.1158C48.3074 10.5869 43.2492 1.5364 38.0266 -0.599173C28.7011 -4.41124 15.079 -4.98013 11.7062 -1.11015C7.3027 3.9461 0.40977 36.3398 3.91686 41.9455C7.9795 48.4456 33.0752 52.662 37.5799 49.3257C42.6327 45.5815 46.0863 28.0317 47.6028 16.1158ZM35.7106 43.7539C31.6504 47.1948 11.2716 44.9406 8.22794 38.7241C5.36168 32.869 10.9657 9.07583 13.9301 4.5756C17.2153 -0.418277 39.2649 2.60281 41.9629 8.14779C43.9326 12.1868 41.7809 38.6116 35.7106 43.7539Z" fill="#F9AD6D"/>
    <path d="M35.9489 1.3672C35.0048 6.25643 34.6115 11.0275 36.2881 13.5578C37.4386 15.294 40.6424 16.289 44.1953 16.8569C47.1301 17.3244 46.7556 11.0811 44.1479 6.33192C41.4879 1.48513 36.4271 -1.10098 35.9489 1.3672Z" fill="#F9AD6D"/>
    <path d="M24.8183 12.1928C23.493 10.2021 18.3018 9.25722 16.4001 10.6669C14.6762 11.9473 13.784 17.3031 14.9337 19.1458C16.1608 21.1099 21.8655 21.3892 23.7858 20.1619C25.78 18.8918 26.1429 14.1871 24.8183 12.1928ZM18.8066 18.4285C16.5764 18.0095 16.016 13.7962 16.7617 13.5559C17.41 13.3462 18.2238 14.7474 18.7063 15.7422C18.921 16.1831 19.488 16.2811 19.8304 15.9325C20.9779 14.7691 23.1874 12.6922 23.8852 13.2073C24.8827 13.9363 21.0128 18.919 18.8066 18.4285Z" fill="#F9AD6D"/>
    <path d="M27.3922 17.6502C27.8932 14.8516 40.3553 18.4439 39.91 19.914C39.4056 21.5896 27.0122 19.7986 27.3922 17.6502Z" fill="#F9AD6D"/>
    <path d="M22.165 26.8988C20.8397 24.9082 15.6485 23.9633 13.7468 25.373C12.0229 26.6534 11.1306 32.0092 12.2804 33.8518C13.5075 35.8159 19.2122 36.0952 21.1325 34.8679C23.1267 33.5978 23.4896 28.8932 22.165 26.8988ZM16.1533 33.1346C13.9231 32.7155 13.3627 28.5023 14.1084 28.2619C14.7567 28.0522 15.5704 29.4534 16.053 30.4482C16.2677 30.8891 16.8347 30.9872 17.177 30.6385C18.3246 29.4752 20.5341 27.3982 21.2318 27.9134C22.2294 28.6423 18.3595 33.6251 16.1533 33.1346Z" fill="#F9AD6D"/>
    <path d="M24.7409 32.3572C25.2418 29.5586 37.704 33.151 37.2587 34.6211C36.7543 36.2967 24.3608 34.5057 24.7409 32.3572Z" fill="#F9AD6D"/>
</svg>
