<svg width="69" height="46" viewBox="0 0 69 46" fill="none" xmlns="http://www.w3.org/2000/svg">
    <path d="M21.1381 -54.7307C48.904 -50.8686 23.563 124.571 13.0258 147.074C2.48857 169.578 -26.7062 85.5853 -39.2599 62.9736C-52.1967 39.5253 -1.79322 -57.966 21.1381 -54.7307Z" fill="#EA7052"/>
    <path d="M18.117 7.15481C45.2937 16.8683 -15.3567 183.431 -30.4714 203.24C-45.5861 223.049 -58.1507 134.484 -66.2584 109.639C-74.5843 83.8922 -4.31841 -0.912106 18.117 7.15481Z" fill="#F9AD6D"/>
    <path d="M12.1685 19.9674C39.2217 27.2844 -2.71249 106.907 -15.734 126.887C-28.7555 146.867 -41.1064 111.007 -50.9397 87.8882C-61.0563 63.9251 -10.1689 13.8812 12.1685 19.9674Z" fill="#68BC98"/>
</svg>
