<svg width="16" height="16" viewBox="0 0 16 16" fill="none" xmlns="http://www.w3.org/2000/svg">
    <path d="M11.1426 2.47591H13.8092C13.9861 2.47591 14.1556 2.54615 14.2806 2.67117C14.4057 2.7962 14.4759 2.96577 14.4759 3.14258V13.8092C14.4759 13.9861 14.4057 14.1556 14.2806 14.2806C14.1556 14.4057 13.9861 14.4759 13.8092 14.4759H1.80924C1.63243 14.4759 1.46286 14.4057 1.33784 14.2806C1.21282 14.1556 1.14258 13.9861 1.14258 13.8092V3.14258C1.14258 2.96577 1.21282 2.7962 1.33784 2.67117C1.46286 2.54615 1.63243 2.47591 1.80924 2.47591H4.47591V1.14258H5.80924V2.47591H9.80924V1.14258H11.1426V2.47591ZM9.80924 3.80924H5.80924V5.14258H4.47591V3.80924H2.47591V6.47591H13.1426V3.80924H11.1426V5.14258H9.80924V3.80924ZM13.1426 7.80924H2.47591V13.1426H13.1426V7.80924Z" fill="#56A7D0" stroke="#56A7D0"/>
</svg>
