<svg width="12" height="19" viewBox="0 0 12 19" fill="none" xmlns="http://www.w3.org/2000/svg">
    <path d="M9.56974 2.37855C8.55693 1.48774 7.22001 1 5.80207 1C4.38413 1 3.04721 1.49113 2.0344 2.37855C0.981071 3.30323 0.400391 4.54629 0.400391 5.87742V6.13484C0.400391 6.28387 0.521928 6.40581 0.670475 6.40581H2.29098C2.43953 6.40581 2.56106 6.28387 2.56106 6.13484V5.87742C2.56106 4.38371 4.01614 3.16774 5.80207 3.16774C7.588 3.16774 9.04308 4.38371 9.04308 5.87742C9.04308 6.93081 8.30035 7.89613 7.14912 8.33984C6.43339 8.61419 5.8257 9.09516 5.39019 9.72516C4.94793 10.3687 4.71836 11.141 4.71836 11.9234V12.6516C4.71836 12.8006 4.8399 12.9226 4.98844 12.9226H6.60895C6.75749 12.9226 6.87903 12.8006 6.87903 12.6516V11.8827C6.88078 11.5539 6.98124 11.2333 7.16733 10.9626C7.35342 10.6919 7.61649 10.4838 7.92223 10.3653C9.9141 9.59645 11.2004 7.83516 11.2004 5.87742C11.2038 4.54629 10.6231 3.30323 9.56974 2.37855ZM4.45165 16.4452C4.45165 16.8045 4.59393 17.1491 4.84718 17.4032C5.10043 17.6573 5.44392 17.8 5.80207 17.8C6.16022 17.8 6.50371 17.6573 6.75696 17.4032C7.01022 17.1491 7.15249 16.8045 7.15249 16.4452C7.15249 16.0858 7.01022 15.7412 6.75696 15.4871C6.50371 15.2331 6.16022 15.0903 5.80207 15.0903C5.44392 15.0903 5.10043 15.2331 4.84718 15.4871C4.59393 15.7412 4.45165 16.0858 4.45165 16.4452Z" fill="#EA7052" stroke="#EA7052" stroke-width="0.6"/>
</svg>
