<svg width="17" height="17" viewBox="0 0 17 17" fill="none" xmlns="http://www.w3.org/2000/svg">
<path d="M8.50033 15.5837C4.5882 15.5837 1.41699 12.4125 1.41699 8.50033C1.41699 4.5882 4.5882 1.41699 8.50033 1.41699C12.4125 1.41699 15.5837 4.5882 15.5837 8.50033C15.5837 12.4125 12.4125 15.5837 8.50033 15.5837ZM8.50033 14.167C10.0032 14.167 11.4446 13.57 12.5073 12.5073C13.57 11.4446 14.167 10.0032 14.167 8.50033C14.167 6.99743 13.57 5.55609 12.5073 4.49339C11.4446 3.43068 10.0032 2.83366 8.50033 2.83366C6.99743 2.83366 5.55609 3.43068 4.49339 4.49339C3.43068 5.55609 2.83366 6.99743 2.83366 8.50033C2.83366 10.0032 3.43068 11.4446 4.49339 12.5073C5.55609 13.57 6.99743 14.167 8.50033 14.167ZM9.20866 8.50033H12.042V9.91699H7.79199V4.95866H9.20866V8.50033Z" fill="#F9AD6D" stroke="#F9AD6D"/>
</svg>
